%TF.GenerationSoftware,KiCad,Pcbnew,(5.1.6)-1*%
%TF.CreationDate,2021-03-12T01:35:39-08:00*%
%TF.ProjectId,WML-C43,574d4c2d-4334-4332-9e6b-696361645f70,rev?*%
%TF.SameCoordinates,Original*%
%TF.FileFunction,Copper,L1,Top*%
%TF.FilePolarity,Positive*%
%FSLAX46Y46*%
G04 Gerber Fmt 4.6, Leading zero omitted, Abs format (unit mm)*
G04 Created by KiCad (PCBNEW (5.1.6)-1) date 2021-03-12 01:35:39*
%MOMM*%
%LPD*%
G01*
G04 APERTURE LIST*
%TA.AperFunction,SMDPad,CuDef*%
%ADD10R,0.300000X1.200000*%
%TD*%
%TA.AperFunction,ComponentPad*%
%ADD11O,1.100000X2.200000*%
%TD*%
%TA.AperFunction,ComponentPad*%
%ADD12O,1.300000X1.900000*%
%TD*%
%TA.AperFunction,ViaPad*%
%ADD13C,0.800000*%
%TD*%
%TA.AperFunction,Conductor*%
%ADD14C,0.250000*%
%TD*%
%TA.AperFunction,Conductor*%
%ADD15C,0.254000*%
%TD*%
G04 APERTURE END LIST*
D10*
%TO.P,U3,9*%
%TO.N,GND*%
X161750000Y-36805000D03*
%TO.P,U3,10*%
%TO.N,D-*%
X161250000Y-36805000D03*
%TO.P,U3,16*%
%TO.N,GND*%
X158250000Y-36805000D03*
%TO.P,U3,14*%
%TO.N,N/C*%
X159250000Y-36805000D03*
%TO.P,U3,11*%
%TO.N,D+*%
X160750000Y-36805000D03*
%TO.P,U3,15*%
%TO.N,N/C*%
X158750000Y-36805000D03*
%TO.P,U3,13*%
%TO.N,3.3V*%
X159750000Y-36805000D03*
%TO.P,U3,12*%
%TO.N,N/C*%
X160250000Y-36805000D03*
%TO.P,U3,1*%
%TO.N,GND*%
X158250000Y-32205000D03*
%TO.P,U3,2*%
%TO.N,N/C*%
X158750000Y-32205000D03*
%TO.P,U3,3*%
X159250000Y-32205000D03*
%TO.P,U3,4*%
X159750000Y-32205000D03*
%TO.P,U3,5*%
X160250000Y-32205000D03*
%TO.P,U3,6*%
%TO.N,3.3V*%
X160750000Y-32205000D03*
%TO.P,U3,7*%
X161250000Y-32205000D03*
%TO.P,U3,8*%
%TO.N,GND*%
X161750000Y-32205000D03*
%TD*%
D11*
%TO.P,J1,S*%
%TO.N,Net-(C1-Pad1)*%
X155700000Y-54500000D03*
D12*
X155700000Y-58700000D03*
X164300000Y-58700000D03*
D11*
X164300000Y-54500000D03*
%TD*%
D13*
%TO.N,GND*%
X152517990Y-52197000D03*
X156718000Y-52197000D03*
X163195000Y-52197000D03*
X167386000Y-52197000D03*
X156845000Y-43815000D03*
X160782000Y-43815000D03*
X152527000Y-37338000D03*
X157226000Y-37338000D03*
X162179000Y-35306000D03*
X167259000Y-38735000D03*
%TO.N,Net-(C1-Pad1)*%
X164300000Y-56595000D03*
X155710000Y-56605000D03*
%TO.N,VBUS*%
X157517000Y-51435000D03*
X162433000Y-51435000D03*
X166624000Y-51435000D03*
%TO.N,3.3V*%
X168910000Y-34417000D03*
%TO.N,Net-(J1-PadA5)*%
X153543000Y-50800000D03*
X161290000Y-50800000D03*
%TO.N,Net-(J1-PadB5)*%
X151384000Y-50165000D03*
X158242000Y-50165000D03*
%TO.N,DBUS-*%
X160528000Y-49022000D03*
X151511000Y-49022000D03*
%TO.N,DBUS+*%
X159796010Y-48163010D03*
X153543000Y-48260000D03*
%TO.N,D+*%
X153543000Y-38608000D03*
%TO.N,D-*%
X151511000Y-39243000D03*
%TO.N,VFILTER*%
X168910000Y-40513000D03*
X157734000Y-40513000D03*
X155575000Y-47117000D03*
X152527000Y-47244000D03*
%TD*%
D14*
%TO.N,GND*%
X152517990Y-52197000D02*
X156718000Y-52197000D01*
X156718000Y-52197000D02*
X163195000Y-52197000D01*
X167386000Y-52197000D02*
X163195000Y-52197000D01*
X156845000Y-43815000D02*
X160782000Y-43815000D01*
X160782000Y-43815000D02*
X160782000Y-43815000D01*
X157717000Y-37338000D02*
X158250000Y-36805000D01*
X152527000Y-37338000D02*
X157226000Y-37338000D01*
X157226000Y-37338000D02*
X157717000Y-37338000D01*
X158250000Y-31369998D02*
X158250000Y-32205000D01*
X158339999Y-31279999D02*
X158250000Y-31369998D01*
X161674999Y-31279999D02*
X158339999Y-31279999D01*
X161750000Y-31355000D02*
X161674999Y-31279999D01*
X161750000Y-32205000D02*
X161750000Y-31355000D01*
X158250000Y-32205000D02*
X158250000Y-36805000D01*
X162179000Y-36376000D02*
X161750000Y-36805000D01*
X162179000Y-35306000D02*
X162179000Y-36376000D01*
X163680000Y-38735000D02*
X161750000Y-36805000D01*
X167259000Y-38735000D02*
X163680000Y-38735000D01*
%TO.N,Net-(C1-Pad1)*%
X155710000Y-56605000D02*
X164290000Y-56605000D01*
%TO.N,VBUS*%
X157517000Y-51435000D02*
X162433000Y-51435000D01*
X162433000Y-51435000D02*
X166624000Y-51435000D01*
%TO.N,3.3V*%
X159750000Y-36805000D02*
X159750000Y-34528000D01*
X168799000Y-34528000D02*
X168910000Y-34417000D01*
X161274000Y-32496000D02*
X161274000Y-34528000D01*
X161250000Y-32472000D02*
X161274000Y-32496000D01*
X161250000Y-32205000D02*
X161250000Y-32472000D01*
X161274000Y-34528000D02*
X168799000Y-34528000D01*
X160750000Y-34417000D02*
X160639000Y-34528000D01*
X160750000Y-32205000D02*
X160750000Y-34417000D01*
X159750000Y-34528000D02*
X160639000Y-34528000D01*
X160639000Y-34528000D02*
X161274000Y-34528000D01*
%TO.N,Net-(J1-PadA5)*%
X153543000Y-50800000D02*
X161290000Y-50800000D01*
%TO.N,Net-(J1-PadB5)*%
X151384000Y-50165000D02*
X158242000Y-50165000D01*
%TO.N,DBUS-*%
X160528000Y-49022000D02*
X151511000Y-49022000D01*
%TO.N,DBUS+*%
X159796010Y-48163010D02*
X153639990Y-48163010D01*
X153639990Y-48163010D02*
X153543000Y-48260000D01*
%TO.N,D+*%
X153543000Y-38608000D02*
X160655000Y-38608000D01*
X160750000Y-38513000D02*
X160750000Y-36805000D01*
X160655000Y-38608000D02*
X160750000Y-38513000D01*
%TO.N,D-*%
X161250000Y-36805000D02*
X161250000Y-39203000D01*
X151601001Y-39333001D02*
X151511000Y-39243000D01*
X153891001Y-39333001D02*
X151601001Y-39333001D01*
X154021002Y-39203000D02*
X153891001Y-39333001D01*
X161250000Y-39203000D02*
X154021002Y-39203000D01*
%TO.N,VFILTER*%
X168910000Y-40513000D02*
X157734000Y-40513000D01*
X155575000Y-47117000D02*
X152654000Y-47117000D01*
X152654000Y-47117000D02*
X152527000Y-47244000D01*
%TD*%
D15*
%TO.N,GND*%
G36*
X150707063Y-39902774D02*
G01*
X150851226Y-40046937D01*
X151020744Y-40160205D01*
X151209102Y-40238226D01*
X151409061Y-40278000D01*
X151612939Y-40278000D01*
X151812898Y-40238226D01*
X152001256Y-40160205D01*
X152101834Y-40093001D01*
X153853679Y-40093001D01*
X153891001Y-40096677D01*
X153928323Y-40093001D01*
X153928334Y-40093001D01*
X154039987Y-40082004D01*
X154183248Y-40038547D01*
X154315277Y-39967975D01*
X154321339Y-39963000D01*
X156856715Y-39963000D01*
X156816795Y-40022744D01*
X156738774Y-40211102D01*
X156699000Y-40411061D01*
X156699000Y-40614939D01*
X156738774Y-40814898D01*
X156816795Y-41003256D01*
X156930063Y-41172774D01*
X157074226Y-41316937D01*
X157243744Y-41430205D01*
X157432102Y-41508226D01*
X157632061Y-41548000D01*
X157835939Y-41548000D01*
X158035898Y-41508226D01*
X158224256Y-41430205D01*
X158393774Y-41316937D01*
X158437711Y-41273000D01*
X168206289Y-41273000D01*
X168250226Y-41316937D01*
X168419744Y-41430205D01*
X168608102Y-41508226D01*
X168808061Y-41548000D01*
X169011939Y-41548000D01*
X169211898Y-41508226D01*
X169315000Y-41465519D01*
X169315001Y-59315000D01*
X165547267Y-59315000D01*
X165566407Y-59251904D01*
X165585000Y-59063123D01*
X165585000Y-58336878D01*
X165566407Y-58148097D01*
X165492929Y-57905873D01*
X165373608Y-57682638D01*
X165213028Y-57486972D01*
X165025577Y-57333134D01*
X165103937Y-57254774D01*
X165217205Y-57085256D01*
X165295226Y-56896898D01*
X165335000Y-56696939D01*
X165335000Y-56493061D01*
X165295226Y-56293102D01*
X165217205Y-56104744D01*
X165103937Y-55935226D01*
X165097327Y-55928616D01*
X165141975Y-55891975D01*
X165290058Y-55711536D01*
X165400094Y-55505674D01*
X165467853Y-55282300D01*
X165485000Y-55108207D01*
X165485000Y-53891793D01*
X165467853Y-53717700D01*
X165400094Y-53494326D01*
X165290058Y-53288464D01*
X165141975Y-53108025D01*
X164961536Y-52959942D01*
X164755674Y-52849906D01*
X164532300Y-52782147D01*
X164300000Y-52759267D01*
X164067701Y-52782147D01*
X163844327Y-52849906D01*
X163638465Y-52959942D01*
X163458026Y-53108025D01*
X163309943Y-53288464D01*
X163199906Y-53494326D01*
X163132147Y-53717700D01*
X163115000Y-53891793D01*
X163115000Y-54116948D01*
X162984552Y-54091000D01*
X162795448Y-54091000D01*
X162609978Y-54127892D01*
X162435269Y-54200259D01*
X162278036Y-54305319D01*
X162144319Y-54439036D01*
X162039259Y-54596269D01*
X161966892Y-54770978D01*
X161930000Y-54956448D01*
X161930000Y-55145552D01*
X161966892Y-55331022D01*
X162039259Y-55505731D01*
X162144319Y-55662964D01*
X162278036Y-55796681D01*
X162350350Y-55845000D01*
X157649650Y-55845000D01*
X157721964Y-55796681D01*
X157855681Y-55662964D01*
X157960741Y-55505731D01*
X158033108Y-55331022D01*
X158070000Y-55145552D01*
X158070000Y-54956448D01*
X158033108Y-54770978D01*
X157960741Y-54596269D01*
X157855681Y-54439036D01*
X157721964Y-54305319D01*
X157564731Y-54200259D01*
X157390022Y-54127892D01*
X157204552Y-54091000D01*
X157015448Y-54091000D01*
X156885000Y-54116948D01*
X156885000Y-53891793D01*
X156867853Y-53717700D01*
X156800094Y-53494326D01*
X156690058Y-53288464D01*
X156541975Y-53108025D01*
X156361536Y-52959942D01*
X156155674Y-52849906D01*
X155932300Y-52782147D01*
X155700000Y-52759267D01*
X155467701Y-52782147D01*
X155244327Y-52849906D01*
X155038465Y-52959942D01*
X154858026Y-53108025D01*
X154709943Y-53288464D01*
X154599906Y-53494326D01*
X154532147Y-53717700D01*
X154515000Y-53891793D01*
X154515000Y-55108206D01*
X154532147Y-55282299D01*
X154599906Y-55505673D01*
X154709942Y-55711535D01*
X154858025Y-55891975D01*
X154913657Y-55937632D01*
X154906063Y-55945226D01*
X154792795Y-56114744D01*
X154714774Y-56303102D01*
X154675000Y-56503061D01*
X154675000Y-56706939D01*
X154714774Y-56906898D01*
X154792795Y-57095256D01*
X154906063Y-57264774D01*
X154974423Y-57333134D01*
X154786973Y-57486972D01*
X154626392Y-57682638D01*
X154507071Y-57905873D01*
X154433593Y-58148096D01*
X154415000Y-58336877D01*
X154415000Y-59063122D01*
X154433593Y-59251903D01*
X154452733Y-59315000D01*
X150685000Y-59315000D01*
X150685000Y-50929711D01*
X150724226Y-50968937D01*
X150893744Y-51082205D01*
X151082102Y-51160226D01*
X151282061Y-51200000D01*
X151485939Y-51200000D01*
X151685898Y-51160226D01*
X151874256Y-51082205D01*
X152043774Y-50968937D01*
X152087711Y-50925000D01*
X152512587Y-50925000D01*
X152547774Y-51101898D01*
X152625795Y-51290256D01*
X152739063Y-51459774D01*
X152883226Y-51603937D01*
X153052744Y-51717205D01*
X153241102Y-51795226D01*
X153441061Y-51835000D01*
X153644939Y-51835000D01*
X153844898Y-51795226D01*
X154033256Y-51717205D01*
X154202774Y-51603937D01*
X154246711Y-51560000D01*
X156486587Y-51560000D01*
X156521774Y-51736898D01*
X156599795Y-51925256D01*
X156713063Y-52094774D01*
X156857226Y-52238937D01*
X157026744Y-52352205D01*
X157215102Y-52430226D01*
X157415061Y-52470000D01*
X157618939Y-52470000D01*
X157818898Y-52430226D01*
X158007256Y-52352205D01*
X158176774Y-52238937D01*
X158220711Y-52195000D01*
X161729289Y-52195000D01*
X161773226Y-52238937D01*
X161942744Y-52352205D01*
X162131102Y-52430226D01*
X162331061Y-52470000D01*
X162534939Y-52470000D01*
X162734898Y-52430226D01*
X162923256Y-52352205D01*
X163092774Y-52238937D01*
X163136711Y-52195000D01*
X165920289Y-52195000D01*
X165964226Y-52238937D01*
X166133744Y-52352205D01*
X166322102Y-52430226D01*
X166522061Y-52470000D01*
X166725939Y-52470000D01*
X166925898Y-52430226D01*
X167114256Y-52352205D01*
X167283774Y-52238937D01*
X167427937Y-52094774D01*
X167541205Y-51925256D01*
X167619226Y-51736898D01*
X167659000Y-51536939D01*
X167659000Y-51333061D01*
X167619226Y-51133102D01*
X167541205Y-50944744D01*
X167427937Y-50775226D01*
X167283774Y-50631063D01*
X167114256Y-50517795D01*
X166925898Y-50439774D01*
X166725939Y-50400000D01*
X166522061Y-50400000D01*
X166322102Y-50439774D01*
X166133744Y-50517795D01*
X165964226Y-50631063D01*
X165920289Y-50675000D01*
X163136711Y-50675000D01*
X163092774Y-50631063D01*
X162923256Y-50517795D01*
X162734898Y-50439774D01*
X162534939Y-50400000D01*
X162331061Y-50400000D01*
X162251173Y-50415891D01*
X162207205Y-50309744D01*
X162093937Y-50140226D01*
X161949774Y-49996063D01*
X161780256Y-49882795D01*
X161591898Y-49804774D01*
X161391939Y-49765000D01*
X161248711Y-49765000D01*
X161331937Y-49681774D01*
X161445205Y-49512256D01*
X161523226Y-49323898D01*
X161563000Y-49123939D01*
X161563000Y-48920061D01*
X161523226Y-48720102D01*
X161445205Y-48531744D01*
X161331937Y-48362226D01*
X161187774Y-48218063D01*
X161018256Y-48104795D01*
X160829898Y-48026774D01*
X160823953Y-48025591D01*
X160791236Y-47861112D01*
X160713215Y-47672754D01*
X160599947Y-47503236D01*
X160455784Y-47359073D01*
X160286266Y-47245805D01*
X160097908Y-47167784D01*
X159897949Y-47128010D01*
X159694071Y-47128010D01*
X159494112Y-47167784D01*
X159305754Y-47245805D01*
X159136236Y-47359073D01*
X159092299Y-47403010D01*
X156573386Y-47403010D01*
X156610000Y-47218939D01*
X156610000Y-47015061D01*
X156570226Y-46815102D01*
X156492205Y-46626744D01*
X156378937Y-46457226D01*
X156234774Y-46313063D01*
X156065256Y-46199795D01*
X155876898Y-46121774D01*
X155676939Y-46082000D01*
X155473061Y-46082000D01*
X155273102Y-46121774D01*
X155084744Y-46199795D01*
X154915226Y-46313063D01*
X154871289Y-46357000D01*
X153062461Y-46357000D01*
X153017256Y-46326795D01*
X152828898Y-46248774D01*
X152628939Y-46209000D01*
X152425061Y-46209000D01*
X152225102Y-46248774D01*
X152036744Y-46326795D01*
X151867226Y-46440063D01*
X151723063Y-46584226D01*
X151609795Y-46753744D01*
X151531774Y-46942102D01*
X151492000Y-47142061D01*
X151492000Y-47345939D01*
X151531774Y-47545898D01*
X151609795Y-47734256D01*
X151723063Y-47903774D01*
X151867226Y-48047937D01*
X151872505Y-48051464D01*
X151812898Y-48026774D01*
X151612939Y-47987000D01*
X151409061Y-47987000D01*
X151209102Y-48026774D01*
X151020744Y-48104795D01*
X150851226Y-48218063D01*
X150707063Y-48362226D01*
X150685000Y-48395246D01*
X150685000Y-39869754D01*
X150707063Y-39902774D01*
G37*
X150707063Y-39902774D02*
X150851226Y-40046937D01*
X151020744Y-40160205D01*
X151209102Y-40238226D01*
X151409061Y-40278000D01*
X151612939Y-40278000D01*
X151812898Y-40238226D01*
X152001256Y-40160205D01*
X152101834Y-40093001D01*
X153853679Y-40093001D01*
X153891001Y-40096677D01*
X153928323Y-40093001D01*
X153928334Y-40093001D01*
X154039987Y-40082004D01*
X154183248Y-40038547D01*
X154315277Y-39967975D01*
X154321339Y-39963000D01*
X156856715Y-39963000D01*
X156816795Y-40022744D01*
X156738774Y-40211102D01*
X156699000Y-40411061D01*
X156699000Y-40614939D01*
X156738774Y-40814898D01*
X156816795Y-41003256D01*
X156930063Y-41172774D01*
X157074226Y-41316937D01*
X157243744Y-41430205D01*
X157432102Y-41508226D01*
X157632061Y-41548000D01*
X157835939Y-41548000D01*
X158035898Y-41508226D01*
X158224256Y-41430205D01*
X158393774Y-41316937D01*
X158437711Y-41273000D01*
X168206289Y-41273000D01*
X168250226Y-41316937D01*
X168419744Y-41430205D01*
X168608102Y-41508226D01*
X168808061Y-41548000D01*
X169011939Y-41548000D01*
X169211898Y-41508226D01*
X169315000Y-41465519D01*
X169315001Y-59315000D01*
X165547267Y-59315000D01*
X165566407Y-59251904D01*
X165585000Y-59063123D01*
X165585000Y-58336878D01*
X165566407Y-58148097D01*
X165492929Y-57905873D01*
X165373608Y-57682638D01*
X165213028Y-57486972D01*
X165025577Y-57333134D01*
X165103937Y-57254774D01*
X165217205Y-57085256D01*
X165295226Y-56896898D01*
X165335000Y-56696939D01*
X165335000Y-56493061D01*
X165295226Y-56293102D01*
X165217205Y-56104744D01*
X165103937Y-55935226D01*
X165097327Y-55928616D01*
X165141975Y-55891975D01*
X165290058Y-55711536D01*
X165400094Y-55505674D01*
X165467853Y-55282300D01*
X165485000Y-55108207D01*
X165485000Y-53891793D01*
X165467853Y-53717700D01*
X165400094Y-53494326D01*
X165290058Y-53288464D01*
X165141975Y-53108025D01*
X164961536Y-52959942D01*
X164755674Y-52849906D01*
X164532300Y-52782147D01*
X164300000Y-52759267D01*
X164067701Y-52782147D01*
X163844327Y-52849906D01*
X163638465Y-52959942D01*
X163458026Y-53108025D01*
X163309943Y-53288464D01*
X163199906Y-53494326D01*
X163132147Y-53717700D01*
X163115000Y-53891793D01*
X163115000Y-54116948D01*
X162984552Y-54091000D01*
X162795448Y-54091000D01*
X162609978Y-54127892D01*
X162435269Y-54200259D01*
X162278036Y-54305319D01*
X162144319Y-54439036D01*
X162039259Y-54596269D01*
X161966892Y-54770978D01*
X161930000Y-54956448D01*
X161930000Y-55145552D01*
X161966892Y-55331022D01*
X162039259Y-55505731D01*
X162144319Y-55662964D01*
X162278036Y-55796681D01*
X162350350Y-55845000D01*
X157649650Y-55845000D01*
X157721964Y-55796681D01*
X157855681Y-55662964D01*
X157960741Y-55505731D01*
X158033108Y-55331022D01*
X158070000Y-55145552D01*
X158070000Y-54956448D01*
X158033108Y-54770978D01*
X157960741Y-54596269D01*
X157855681Y-54439036D01*
X157721964Y-54305319D01*
X157564731Y-54200259D01*
X157390022Y-54127892D01*
X157204552Y-54091000D01*
X157015448Y-54091000D01*
X156885000Y-54116948D01*
X156885000Y-53891793D01*
X156867853Y-53717700D01*
X156800094Y-53494326D01*
X156690058Y-53288464D01*
X156541975Y-53108025D01*
X156361536Y-52959942D01*
X156155674Y-52849906D01*
X155932300Y-52782147D01*
X155700000Y-52759267D01*
X155467701Y-52782147D01*
X155244327Y-52849906D01*
X155038465Y-52959942D01*
X154858026Y-53108025D01*
X154709943Y-53288464D01*
X154599906Y-53494326D01*
X154532147Y-53717700D01*
X154515000Y-53891793D01*
X154515000Y-55108206D01*
X154532147Y-55282299D01*
X154599906Y-55505673D01*
X154709942Y-55711535D01*
X154858025Y-55891975D01*
X154913657Y-55937632D01*
X154906063Y-55945226D01*
X154792795Y-56114744D01*
X154714774Y-56303102D01*
X154675000Y-56503061D01*
X154675000Y-56706939D01*
X154714774Y-56906898D01*
X154792795Y-57095256D01*
X154906063Y-57264774D01*
X154974423Y-57333134D01*
X154786973Y-57486972D01*
X154626392Y-57682638D01*
X154507071Y-57905873D01*
X154433593Y-58148096D01*
X154415000Y-58336877D01*
X154415000Y-59063122D01*
X154433593Y-59251903D01*
X154452733Y-59315000D01*
X150685000Y-59315000D01*
X150685000Y-50929711D01*
X150724226Y-50968937D01*
X150893744Y-51082205D01*
X151082102Y-51160226D01*
X151282061Y-51200000D01*
X151485939Y-51200000D01*
X151685898Y-51160226D01*
X151874256Y-51082205D01*
X152043774Y-50968937D01*
X152087711Y-50925000D01*
X152512587Y-50925000D01*
X152547774Y-51101898D01*
X152625795Y-51290256D01*
X152739063Y-51459774D01*
X152883226Y-51603937D01*
X153052744Y-51717205D01*
X153241102Y-51795226D01*
X153441061Y-51835000D01*
X153644939Y-51835000D01*
X153844898Y-51795226D01*
X154033256Y-51717205D01*
X154202774Y-51603937D01*
X154246711Y-51560000D01*
X156486587Y-51560000D01*
X156521774Y-51736898D01*
X156599795Y-51925256D01*
X156713063Y-52094774D01*
X156857226Y-52238937D01*
X157026744Y-52352205D01*
X157215102Y-52430226D01*
X157415061Y-52470000D01*
X157618939Y-52470000D01*
X157818898Y-52430226D01*
X158007256Y-52352205D01*
X158176774Y-52238937D01*
X158220711Y-52195000D01*
X161729289Y-52195000D01*
X161773226Y-52238937D01*
X161942744Y-52352205D01*
X162131102Y-52430226D01*
X162331061Y-52470000D01*
X162534939Y-52470000D01*
X162734898Y-52430226D01*
X162923256Y-52352205D01*
X163092774Y-52238937D01*
X163136711Y-52195000D01*
X165920289Y-52195000D01*
X165964226Y-52238937D01*
X166133744Y-52352205D01*
X166322102Y-52430226D01*
X166522061Y-52470000D01*
X166725939Y-52470000D01*
X166925898Y-52430226D01*
X167114256Y-52352205D01*
X167283774Y-52238937D01*
X167427937Y-52094774D01*
X167541205Y-51925256D01*
X167619226Y-51736898D01*
X167659000Y-51536939D01*
X167659000Y-51333061D01*
X167619226Y-51133102D01*
X167541205Y-50944744D01*
X167427937Y-50775226D01*
X167283774Y-50631063D01*
X167114256Y-50517795D01*
X166925898Y-50439774D01*
X166725939Y-50400000D01*
X166522061Y-50400000D01*
X166322102Y-50439774D01*
X166133744Y-50517795D01*
X165964226Y-50631063D01*
X165920289Y-50675000D01*
X163136711Y-50675000D01*
X163092774Y-50631063D01*
X162923256Y-50517795D01*
X162734898Y-50439774D01*
X162534939Y-50400000D01*
X162331061Y-50400000D01*
X162251173Y-50415891D01*
X162207205Y-50309744D01*
X162093937Y-50140226D01*
X161949774Y-49996063D01*
X161780256Y-49882795D01*
X161591898Y-49804774D01*
X161391939Y-49765000D01*
X161248711Y-49765000D01*
X161331937Y-49681774D01*
X161445205Y-49512256D01*
X161523226Y-49323898D01*
X161563000Y-49123939D01*
X161563000Y-48920061D01*
X161523226Y-48720102D01*
X161445205Y-48531744D01*
X161331937Y-48362226D01*
X161187774Y-48218063D01*
X161018256Y-48104795D01*
X160829898Y-48026774D01*
X160823953Y-48025591D01*
X160791236Y-47861112D01*
X160713215Y-47672754D01*
X160599947Y-47503236D01*
X160455784Y-47359073D01*
X160286266Y-47245805D01*
X160097908Y-47167784D01*
X159897949Y-47128010D01*
X159694071Y-47128010D01*
X159494112Y-47167784D01*
X159305754Y-47245805D01*
X159136236Y-47359073D01*
X159092299Y-47403010D01*
X156573386Y-47403010D01*
X156610000Y-47218939D01*
X156610000Y-47015061D01*
X156570226Y-46815102D01*
X156492205Y-46626744D01*
X156378937Y-46457226D01*
X156234774Y-46313063D01*
X156065256Y-46199795D01*
X155876898Y-46121774D01*
X155676939Y-46082000D01*
X155473061Y-46082000D01*
X155273102Y-46121774D01*
X155084744Y-46199795D01*
X154915226Y-46313063D01*
X154871289Y-46357000D01*
X153062461Y-46357000D01*
X153017256Y-46326795D01*
X152828898Y-46248774D01*
X152628939Y-46209000D01*
X152425061Y-46209000D01*
X152225102Y-46248774D01*
X152036744Y-46326795D01*
X151867226Y-46440063D01*
X151723063Y-46584226D01*
X151609795Y-46753744D01*
X151531774Y-46942102D01*
X151492000Y-47142061D01*
X151492000Y-47345939D01*
X151531774Y-47545898D01*
X151609795Y-47734256D01*
X151723063Y-47903774D01*
X151867226Y-48047937D01*
X151872505Y-48051464D01*
X151812898Y-48026774D01*
X151612939Y-47987000D01*
X151409061Y-47987000D01*
X151209102Y-48026774D01*
X151020744Y-48104795D01*
X150851226Y-48218063D01*
X150707063Y-48362226D01*
X150685000Y-48395246D01*
X150685000Y-39869754D01*
X150707063Y-39902774D01*
G36*
X160639000Y-35291676D02*
G01*
X160676322Y-35288000D01*
X161236667Y-35288000D01*
X161274000Y-35291677D01*
X161311333Y-35288000D01*
X168350593Y-35288000D01*
X168419744Y-35334205D01*
X168608102Y-35412226D01*
X168808061Y-35452000D01*
X169011939Y-35452000D01*
X169211898Y-35412226D01*
X169315000Y-35369519D01*
X169315000Y-39560481D01*
X169211898Y-39517774D01*
X169011939Y-39478000D01*
X168808061Y-39478000D01*
X168608102Y-39517774D01*
X168419744Y-39595795D01*
X168250226Y-39709063D01*
X168206289Y-39753000D01*
X161777817Y-39753000D01*
X161790001Y-39743001D01*
X161884974Y-39627276D01*
X161955546Y-39495247D01*
X161999003Y-39351986D01*
X162010000Y-39240333D01*
X162013677Y-39203000D01*
X162010000Y-39165667D01*
X162010000Y-38031357D01*
X162035289Y-38028564D01*
X162154341Y-37990189D01*
X162263619Y-37929325D01*
X162358923Y-37848312D01*
X162436591Y-37750263D01*
X162493638Y-37638945D01*
X162527871Y-37518637D01*
X162537977Y-37393961D01*
X162535000Y-37090750D01*
X162376250Y-36932000D01*
X162038072Y-36932000D01*
X162038072Y-36678000D01*
X162376250Y-36678000D01*
X162535000Y-36519250D01*
X162537977Y-36216039D01*
X162527871Y-36091363D01*
X162493638Y-35971055D01*
X162436591Y-35859737D01*
X162358923Y-35761688D01*
X162263619Y-35680675D01*
X162154341Y-35619811D01*
X162035289Y-35581436D01*
X161931750Y-35570000D01*
X161794475Y-35707275D01*
X161754494Y-35674463D01*
X161644180Y-35615498D01*
X161600497Y-35602247D01*
X161568250Y-35570000D01*
X161503644Y-35577136D01*
X161400000Y-35566928D01*
X161100000Y-35566928D01*
X161000000Y-35576777D01*
X160900000Y-35566928D01*
X160600000Y-35566928D01*
X160510000Y-35575792D01*
X160510000Y-35288000D01*
X160601678Y-35288000D01*
X160639000Y-35291676D01*
G37*
X160639000Y-35291676D02*
X160676322Y-35288000D01*
X161236667Y-35288000D01*
X161274000Y-35291677D01*
X161311333Y-35288000D01*
X168350593Y-35288000D01*
X168419744Y-35334205D01*
X168608102Y-35412226D01*
X168808061Y-35452000D01*
X169011939Y-35452000D01*
X169211898Y-35412226D01*
X169315000Y-35369519D01*
X169315000Y-39560481D01*
X169211898Y-39517774D01*
X169011939Y-39478000D01*
X168808061Y-39478000D01*
X168608102Y-39517774D01*
X168419744Y-39595795D01*
X168250226Y-39709063D01*
X168206289Y-39753000D01*
X161777817Y-39753000D01*
X161790001Y-39743001D01*
X161884974Y-39627276D01*
X161955546Y-39495247D01*
X161999003Y-39351986D01*
X162010000Y-39240333D01*
X162013677Y-39203000D01*
X162010000Y-39165667D01*
X162010000Y-38031357D01*
X162035289Y-38028564D01*
X162154341Y-37990189D01*
X162263619Y-37929325D01*
X162358923Y-37848312D01*
X162436591Y-37750263D01*
X162493638Y-37638945D01*
X162527871Y-37518637D01*
X162537977Y-37393961D01*
X162535000Y-37090750D01*
X162376250Y-36932000D01*
X162038072Y-36932000D01*
X162038072Y-36678000D01*
X162376250Y-36678000D01*
X162535000Y-36519250D01*
X162537977Y-36216039D01*
X162527871Y-36091363D01*
X162493638Y-35971055D01*
X162436591Y-35859737D01*
X162358923Y-35761688D01*
X162263619Y-35680675D01*
X162154341Y-35619811D01*
X162035289Y-35581436D01*
X161931750Y-35570000D01*
X161794475Y-35707275D01*
X161754494Y-35674463D01*
X161644180Y-35615498D01*
X161600497Y-35602247D01*
X161568250Y-35570000D01*
X161503644Y-35577136D01*
X161400000Y-35566928D01*
X161100000Y-35566928D01*
X161000000Y-35576777D01*
X160900000Y-35566928D01*
X160600000Y-35566928D01*
X160510000Y-35575792D01*
X160510000Y-35288000D01*
X160601678Y-35288000D01*
X160639000Y-35291676D01*
G36*
X169315000Y-33464481D02*
G01*
X169211898Y-33421774D01*
X169011939Y-33382000D01*
X168808061Y-33382000D01*
X168608102Y-33421774D01*
X168419744Y-33499795D01*
X168250226Y-33613063D01*
X168106063Y-33757226D01*
X168098864Y-33768000D01*
X162034000Y-33768000D01*
X162034000Y-33428706D01*
X162035289Y-33428564D01*
X162154341Y-33390189D01*
X162263619Y-33329325D01*
X162358923Y-33248312D01*
X162436591Y-33150263D01*
X162493638Y-33038945D01*
X162527871Y-32918637D01*
X162537977Y-32793961D01*
X162535000Y-32490750D01*
X162376250Y-32332000D01*
X162038072Y-32332000D01*
X162038072Y-32078000D01*
X162376250Y-32078000D01*
X162535000Y-31919250D01*
X162537977Y-31616039D01*
X162527871Y-31491363D01*
X162493638Y-31371055D01*
X162436591Y-31259737D01*
X162358923Y-31161688D01*
X162263619Y-31080675D01*
X162154341Y-31019811D01*
X162035289Y-30981436D01*
X161931750Y-30970000D01*
X161794475Y-31107275D01*
X161754494Y-31074463D01*
X161644180Y-31015498D01*
X161600497Y-31002247D01*
X161568250Y-30970000D01*
X161503644Y-30977136D01*
X161400000Y-30966928D01*
X161100000Y-30966928D01*
X161000000Y-30976777D01*
X160900000Y-30966928D01*
X160600000Y-30966928D01*
X160500000Y-30976777D01*
X160400000Y-30966928D01*
X160100000Y-30966928D01*
X160000000Y-30976777D01*
X159900000Y-30966928D01*
X159600000Y-30966928D01*
X159500000Y-30976777D01*
X159400000Y-30966928D01*
X159100000Y-30966928D01*
X159000000Y-30976777D01*
X158900000Y-30966928D01*
X158600000Y-30966928D01*
X158496356Y-30977136D01*
X158431750Y-30970000D01*
X158399503Y-31002247D01*
X158355820Y-31015498D01*
X158245506Y-31074463D01*
X158205525Y-31107275D01*
X158068250Y-30970000D01*
X157964711Y-30981436D01*
X157845659Y-31019811D01*
X157736381Y-31080675D01*
X157641077Y-31161688D01*
X157563409Y-31259737D01*
X157506362Y-31371055D01*
X157472129Y-31491363D01*
X157462023Y-31616039D01*
X157465000Y-31919250D01*
X157623750Y-32078000D01*
X157961928Y-32078000D01*
X157961928Y-32332000D01*
X157623750Y-32332000D01*
X157465000Y-32490750D01*
X157462023Y-32793961D01*
X157472129Y-32918637D01*
X157506362Y-33038945D01*
X157563409Y-33150263D01*
X157641077Y-33248312D01*
X157736381Y-33329325D01*
X157845659Y-33390189D01*
X157964711Y-33428564D01*
X158068250Y-33440000D01*
X158205525Y-33302725D01*
X158245506Y-33335537D01*
X158355820Y-33394502D01*
X158399503Y-33407753D01*
X158431750Y-33440000D01*
X158496356Y-33432864D01*
X158600000Y-33443072D01*
X158900000Y-33443072D01*
X159000000Y-33433223D01*
X159100000Y-33443072D01*
X159400000Y-33443072D01*
X159500000Y-33433223D01*
X159600000Y-33443072D01*
X159900000Y-33443072D01*
X159990001Y-33434208D01*
X159990001Y-33768000D01*
X159787333Y-33768000D01*
X159750000Y-33764323D01*
X159712667Y-33768000D01*
X159601014Y-33778997D01*
X159457753Y-33822454D01*
X159325724Y-33893026D01*
X159209999Y-33987999D01*
X159115026Y-34103724D01*
X159044454Y-34235753D01*
X159000997Y-34379014D01*
X158986323Y-34528000D01*
X158990001Y-34565343D01*
X158990001Y-35575792D01*
X158900000Y-35566928D01*
X158600000Y-35566928D01*
X158496356Y-35577136D01*
X158431750Y-35570000D01*
X158399503Y-35602247D01*
X158355820Y-35615498D01*
X158245506Y-35674463D01*
X158205525Y-35707275D01*
X158068250Y-35570000D01*
X157964711Y-35581436D01*
X157845659Y-35619811D01*
X157736381Y-35680675D01*
X157641077Y-35761688D01*
X157563409Y-35859737D01*
X157506362Y-35971055D01*
X157472129Y-36091363D01*
X157462023Y-36216039D01*
X157465000Y-36519250D01*
X157623750Y-36678000D01*
X157961928Y-36678000D01*
X157961928Y-36932000D01*
X157623750Y-36932000D01*
X157465000Y-37090750D01*
X157462023Y-37393961D01*
X157472129Y-37518637D01*
X157506362Y-37638945D01*
X157563409Y-37750263D01*
X157640830Y-37848000D01*
X154246711Y-37848000D01*
X154202774Y-37804063D01*
X154033256Y-37690795D01*
X153844898Y-37612774D01*
X153644939Y-37573000D01*
X153441061Y-37573000D01*
X153241102Y-37612774D01*
X153052744Y-37690795D01*
X152883226Y-37804063D01*
X152739063Y-37948226D01*
X152625795Y-38117744D01*
X152547774Y-38306102D01*
X152508000Y-38506061D01*
X152508000Y-38573001D01*
X152304712Y-38573001D01*
X152170774Y-38439063D01*
X152001256Y-38325795D01*
X151812898Y-38247774D01*
X151612939Y-38208000D01*
X151409061Y-38208000D01*
X151209102Y-38247774D01*
X151020744Y-38325795D01*
X150851226Y-38439063D01*
X150707063Y-38583226D01*
X150685000Y-38616246D01*
X150685000Y-30685000D01*
X169315000Y-30685000D01*
X169315000Y-33464481D01*
G37*
X169315000Y-33464481D02*
X169211898Y-33421774D01*
X169011939Y-33382000D01*
X168808061Y-33382000D01*
X168608102Y-33421774D01*
X168419744Y-33499795D01*
X168250226Y-33613063D01*
X168106063Y-33757226D01*
X168098864Y-33768000D01*
X162034000Y-33768000D01*
X162034000Y-33428706D01*
X162035289Y-33428564D01*
X162154341Y-33390189D01*
X162263619Y-33329325D01*
X162358923Y-33248312D01*
X162436591Y-33150263D01*
X162493638Y-33038945D01*
X162527871Y-32918637D01*
X162537977Y-32793961D01*
X162535000Y-32490750D01*
X162376250Y-32332000D01*
X162038072Y-32332000D01*
X162038072Y-32078000D01*
X162376250Y-32078000D01*
X162535000Y-31919250D01*
X162537977Y-31616039D01*
X162527871Y-31491363D01*
X162493638Y-31371055D01*
X162436591Y-31259737D01*
X162358923Y-31161688D01*
X162263619Y-31080675D01*
X162154341Y-31019811D01*
X162035289Y-30981436D01*
X161931750Y-30970000D01*
X161794475Y-31107275D01*
X161754494Y-31074463D01*
X161644180Y-31015498D01*
X161600497Y-31002247D01*
X161568250Y-30970000D01*
X161503644Y-30977136D01*
X161400000Y-30966928D01*
X161100000Y-30966928D01*
X161000000Y-30976777D01*
X160900000Y-30966928D01*
X160600000Y-30966928D01*
X160500000Y-30976777D01*
X160400000Y-30966928D01*
X160100000Y-30966928D01*
X160000000Y-30976777D01*
X159900000Y-30966928D01*
X159600000Y-30966928D01*
X159500000Y-30976777D01*
X159400000Y-30966928D01*
X159100000Y-30966928D01*
X159000000Y-30976777D01*
X158900000Y-30966928D01*
X158600000Y-30966928D01*
X158496356Y-30977136D01*
X158431750Y-30970000D01*
X158399503Y-31002247D01*
X158355820Y-31015498D01*
X158245506Y-31074463D01*
X158205525Y-31107275D01*
X158068250Y-30970000D01*
X157964711Y-30981436D01*
X157845659Y-31019811D01*
X157736381Y-31080675D01*
X157641077Y-31161688D01*
X157563409Y-31259737D01*
X157506362Y-31371055D01*
X157472129Y-31491363D01*
X157462023Y-31616039D01*
X157465000Y-31919250D01*
X157623750Y-32078000D01*
X157961928Y-32078000D01*
X157961928Y-32332000D01*
X157623750Y-32332000D01*
X157465000Y-32490750D01*
X157462023Y-32793961D01*
X157472129Y-32918637D01*
X157506362Y-33038945D01*
X157563409Y-33150263D01*
X157641077Y-33248312D01*
X157736381Y-33329325D01*
X157845659Y-33390189D01*
X157964711Y-33428564D01*
X158068250Y-33440000D01*
X158205525Y-33302725D01*
X158245506Y-33335537D01*
X158355820Y-33394502D01*
X158399503Y-33407753D01*
X158431750Y-33440000D01*
X158496356Y-33432864D01*
X158600000Y-33443072D01*
X158900000Y-33443072D01*
X159000000Y-33433223D01*
X159100000Y-33443072D01*
X159400000Y-33443072D01*
X159500000Y-33433223D01*
X159600000Y-33443072D01*
X159900000Y-33443072D01*
X159990001Y-33434208D01*
X159990001Y-33768000D01*
X159787333Y-33768000D01*
X159750000Y-33764323D01*
X159712667Y-33768000D01*
X159601014Y-33778997D01*
X159457753Y-33822454D01*
X159325724Y-33893026D01*
X159209999Y-33987999D01*
X159115026Y-34103724D01*
X159044454Y-34235753D01*
X159000997Y-34379014D01*
X158986323Y-34528000D01*
X158990001Y-34565343D01*
X158990001Y-35575792D01*
X158900000Y-35566928D01*
X158600000Y-35566928D01*
X158496356Y-35577136D01*
X158431750Y-35570000D01*
X158399503Y-35602247D01*
X158355820Y-35615498D01*
X158245506Y-35674463D01*
X158205525Y-35707275D01*
X158068250Y-35570000D01*
X157964711Y-35581436D01*
X157845659Y-35619811D01*
X157736381Y-35680675D01*
X157641077Y-35761688D01*
X157563409Y-35859737D01*
X157506362Y-35971055D01*
X157472129Y-36091363D01*
X157462023Y-36216039D01*
X157465000Y-36519250D01*
X157623750Y-36678000D01*
X157961928Y-36678000D01*
X157961928Y-36932000D01*
X157623750Y-36932000D01*
X157465000Y-37090750D01*
X157462023Y-37393961D01*
X157472129Y-37518637D01*
X157506362Y-37638945D01*
X157563409Y-37750263D01*
X157640830Y-37848000D01*
X154246711Y-37848000D01*
X154202774Y-37804063D01*
X154033256Y-37690795D01*
X153844898Y-37612774D01*
X153644939Y-37573000D01*
X153441061Y-37573000D01*
X153241102Y-37612774D01*
X153052744Y-37690795D01*
X152883226Y-37804063D01*
X152739063Y-37948226D01*
X152625795Y-38117744D01*
X152547774Y-38306102D01*
X152508000Y-38506061D01*
X152508000Y-38573001D01*
X152304712Y-38573001D01*
X152170774Y-38439063D01*
X152001256Y-38325795D01*
X151812898Y-38247774D01*
X151612939Y-38208000D01*
X151409061Y-38208000D01*
X151209102Y-38247774D01*
X151020744Y-38325795D01*
X150851226Y-38439063D01*
X150707063Y-38583226D01*
X150685000Y-38616246D01*
X150685000Y-30685000D01*
X169315000Y-30685000D01*
X169315000Y-33464481D01*
%TD*%
M02*
