%TF.GenerationSoftware,KiCad,Pcbnew,(5.1.6)-1*%
%TF.CreationDate,2021-03-12T01:35:39-08:00*%
%TF.ProjectId,WML-C43,574d4c2d-4334-4332-9e6b-696361645f70,rev?*%
%TF.SameCoordinates,Original*%
%TF.FileFunction,Copper,L2,Bot*%
%TF.FilePolarity,Positive*%
%FSLAX46Y46*%
G04 Gerber Fmt 4.6, Leading zero omitted, Abs format (unit mm)*
G04 Created by KiCad (PCBNEW (5.1.6)-1) date 2021-03-12 01:35:39*
%MOMM*%
%LPD*%
G01*
G04 APERTURE LIST*
%TA.AperFunction,SMDPad,CuDef*%
%ADD10R,0.500000X0.500000*%
%TD*%
%TA.AperFunction,SMDPad,CuDef*%
%ADD11R,0.800000X0.900000*%
%TD*%
%TA.AperFunction,SMDPad,CuDef*%
%ADD12R,0.650000X1.060000*%
%TD*%
%TA.AperFunction,SMDPad,CuDef*%
%ADD13R,2.300000X2.500000*%
%TD*%
%TA.AperFunction,ComponentPad*%
%ADD14O,1.100000X2.200000*%
%TD*%
%TA.AperFunction,ComponentPad*%
%ADD15O,1.300000X1.900000*%
%TD*%
%TA.AperFunction,ViaPad*%
%ADD16C,0.800000*%
%TD*%
%TA.AperFunction,Conductor*%
%ADD17C,0.250000*%
%TD*%
%TA.AperFunction,Conductor*%
%ADD18C,0.254000*%
%TD*%
G04 APERTURE END LIST*
D10*
%TO.P,D2,2*%
%TO.N,3.3V*%
X167724000Y-35560000D03*
%TO.P,D2,1*%
%TO.N,Net-(C2-Pad1)*%
X165524000Y-35560000D03*
%TD*%
D11*
%TO.P,U2,3*%
%TO.N,Net-(C2-Pad1)*%
X165989000Y-39354000D03*
%TO.P,U2,2*%
%TO.N,3.3V*%
X166939000Y-37354000D03*
%TO.P,U2,1*%
%TO.N,GND*%
X165039000Y-37354000D03*
%TD*%
D12*
%TO.P,U1,5*%
%TO.N,VFILTER*%
X152527000Y-45931000D03*
%TO.P,U1,6*%
%TO.N,DBUS-*%
X151577000Y-45931000D03*
%TO.P,U1,4*%
%TO.N,DBUS+*%
X153477000Y-45931000D03*
%TO.P,U1,3*%
%TO.N,D+*%
X153477000Y-43731000D03*
%TO.P,U1,2*%
%TO.N,GND*%
X152527000Y-43731000D03*
%TO.P,U1,1*%
%TO.N,D-*%
X151577000Y-43731000D03*
%TD*%
%TO.P,R3,2*%
%TO.N,GND*%
%TA.AperFunction,SMDPad,CuDef*%
G36*
G01*
X150933999Y-55822000D02*
X151834001Y-55822000D01*
G75*
G02*
X152084000Y-56071999I0J-249999D01*
G01*
X152084000Y-56722001D01*
G75*
G02*
X151834001Y-56972000I-249999J0D01*
G01*
X150933999Y-56972000D01*
G75*
G02*
X150684000Y-56722001I0J249999D01*
G01*
X150684000Y-56071999D01*
G75*
G02*
X150933999Y-55822000I249999J0D01*
G01*
G37*
%TD.AperFunction*%
%TO.P,R3,1*%
%TO.N,Net-(J1-PadB5)*%
%TA.AperFunction,SMDPad,CuDef*%
G36*
G01*
X150933999Y-53772000D02*
X151834001Y-53772000D01*
G75*
G02*
X152084000Y-54021999I0J-249999D01*
G01*
X152084000Y-54672001D01*
G75*
G02*
X151834001Y-54922000I-249999J0D01*
G01*
X150933999Y-54922000D01*
G75*
G02*
X150684000Y-54672001I0J249999D01*
G01*
X150684000Y-54021999D01*
G75*
G02*
X150933999Y-53772000I249999J0D01*
G01*
G37*
%TD.AperFunction*%
%TD*%
%TO.P,R2,2*%
%TO.N,GND*%
%TA.AperFunction,SMDPad,CuDef*%
G36*
G01*
X153092999Y-55822000D02*
X153993001Y-55822000D01*
G75*
G02*
X154243000Y-56071999I0J-249999D01*
G01*
X154243000Y-56722001D01*
G75*
G02*
X153993001Y-56972000I-249999J0D01*
G01*
X153092999Y-56972000D01*
G75*
G02*
X152843000Y-56722001I0J249999D01*
G01*
X152843000Y-56071999D01*
G75*
G02*
X153092999Y-55822000I249999J0D01*
G01*
G37*
%TD.AperFunction*%
%TO.P,R2,1*%
%TO.N,Net-(J1-PadA5)*%
%TA.AperFunction,SMDPad,CuDef*%
G36*
G01*
X153092999Y-53772000D02*
X153993001Y-53772000D01*
G75*
G02*
X154243000Y-54021999I0J-249999D01*
G01*
X154243000Y-54672001D01*
G75*
G02*
X153993001Y-54922000I-249999J0D01*
G01*
X153092999Y-54922000D01*
G75*
G02*
X152843000Y-54672001I0J249999D01*
G01*
X152843000Y-54021999D01*
G75*
G02*
X153092999Y-53772000I249999J0D01*
G01*
G37*
%TD.AperFunction*%
%TD*%
%TO.P,F1,2*%
%TO.N,VFILTER*%
%TA.AperFunction,SMDPad,CuDef*%
G36*
G01*
X168161000Y-42916000D02*
X168161000Y-41666000D01*
G75*
G02*
X168411000Y-41416000I250000J0D01*
G01*
X169336000Y-41416000D01*
G75*
G02*
X169586000Y-41666000I0J-250000D01*
G01*
X169586000Y-42916000D01*
G75*
G02*
X169336000Y-43166000I-250000J0D01*
G01*
X168411000Y-43166000D01*
G75*
G02*
X168161000Y-42916000I0J250000D01*
G01*
G37*
%TD.AperFunction*%
%TO.P,F1,1*%
%TO.N,Net-(C2-Pad1)*%
%TA.AperFunction,SMDPad,CuDef*%
G36*
G01*
X165186000Y-42916000D02*
X165186000Y-41666000D01*
G75*
G02*
X165436000Y-41416000I250000J0D01*
G01*
X166361000Y-41416000D01*
G75*
G02*
X166611000Y-41666000I0J-250000D01*
G01*
X166611000Y-42916000D01*
G75*
G02*
X166361000Y-43166000I-250000J0D01*
G01*
X165436000Y-43166000D01*
G75*
G02*
X165186000Y-42916000I0J250000D01*
G01*
G37*
%TD.AperFunction*%
%TD*%
D13*
%TO.P,D1,2*%
%TO.N,GND*%
X162560000Y-46981000D03*
%TO.P,D1,1*%
%TO.N,Net-(C2-Pad1)*%
X162560000Y-42681000D03*
%TD*%
%TO.P,C4,2*%
%TO.N,GND*%
%TA.AperFunction,SMDPad,CuDef*%
G36*
G01*
X168459999Y-38677000D02*
X169360001Y-38677000D01*
G75*
G02*
X169610000Y-38926999I0J-249999D01*
G01*
X169610000Y-39577001D01*
G75*
G02*
X169360001Y-39827000I-249999J0D01*
G01*
X168459999Y-39827000D01*
G75*
G02*
X168210000Y-39577001I0J249999D01*
G01*
X168210000Y-38926999D01*
G75*
G02*
X168459999Y-38677000I249999J0D01*
G01*
G37*
%TD.AperFunction*%
%TO.P,C4,1*%
%TO.N,3.3V*%
%TA.AperFunction,SMDPad,CuDef*%
G36*
G01*
X168459999Y-36627000D02*
X169360001Y-36627000D01*
G75*
G02*
X169610000Y-36876999I0J-249999D01*
G01*
X169610000Y-37527001D01*
G75*
G02*
X169360001Y-37777000I-249999J0D01*
G01*
X168459999Y-37777000D01*
G75*
G02*
X168210000Y-37527001I0J249999D01*
G01*
X168210000Y-36876999D01*
G75*
G02*
X168459999Y-36627000I249999J0D01*
G01*
G37*
%TD.AperFunction*%
%TD*%
%TO.P,C3,2*%
%TO.N,VFILTER*%
%TA.AperFunction,SMDPad,CuDef*%
G36*
G01*
X155124999Y-45281000D02*
X156025001Y-45281000D01*
G75*
G02*
X156275000Y-45530999I0J-249999D01*
G01*
X156275000Y-46181001D01*
G75*
G02*
X156025001Y-46431000I-249999J0D01*
G01*
X155124999Y-46431000D01*
G75*
G02*
X154875000Y-46181001I0J249999D01*
G01*
X154875000Y-45530999D01*
G75*
G02*
X155124999Y-45281000I249999J0D01*
G01*
G37*
%TD.AperFunction*%
%TO.P,C3,1*%
%TO.N,GND*%
%TA.AperFunction,SMDPad,CuDef*%
G36*
G01*
X155124999Y-43231000D02*
X156025001Y-43231000D01*
G75*
G02*
X156275000Y-43480999I0J-249999D01*
G01*
X156275000Y-44131001D01*
G75*
G02*
X156025001Y-44381000I-249999J0D01*
G01*
X155124999Y-44381000D01*
G75*
G02*
X154875000Y-44131001I0J249999D01*
G01*
X154875000Y-43480999D01*
G75*
G02*
X155124999Y-43231000I249999J0D01*
G01*
G37*
%TD.AperFunction*%
%TD*%
%TO.P,C2,2*%
%TO.N,GND*%
%TA.AperFunction,SMDPad,CuDef*%
G36*
G01*
X163518001Y-37904000D02*
X162617999Y-37904000D01*
G75*
G02*
X162368000Y-37654001I0J249999D01*
G01*
X162368000Y-37003999D01*
G75*
G02*
X162617999Y-36754000I249999J0D01*
G01*
X163518001Y-36754000D01*
G75*
G02*
X163768000Y-37003999I0J-249999D01*
G01*
X163768000Y-37654001D01*
G75*
G02*
X163518001Y-37904000I-249999J0D01*
G01*
G37*
%TD.AperFunction*%
%TO.P,C2,1*%
%TO.N,Net-(C2-Pad1)*%
%TA.AperFunction,SMDPad,CuDef*%
G36*
G01*
X163518001Y-39954000D02*
X162617999Y-39954000D01*
G75*
G02*
X162368000Y-39704001I0J249999D01*
G01*
X162368000Y-39053999D01*
G75*
G02*
X162617999Y-38804000I249999J0D01*
G01*
X163518001Y-38804000D01*
G75*
G02*
X163768000Y-39053999I0J-249999D01*
G01*
X163768000Y-39704001D01*
G75*
G02*
X163518001Y-39954000I-249999J0D01*
G01*
G37*
%TD.AperFunction*%
%TD*%
%TO.P,C1,2*%
%TO.N,GND*%
%TA.AperFunction,SMDPad,CuDef*%
G36*
G01*
X166760001Y-54805000D02*
X165859999Y-54805000D01*
G75*
G02*
X165610000Y-54555001I0J249999D01*
G01*
X165610000Y-53904999D01*
G75*
G02*
X165859999Y-53655000I249999J0D01*
G01*
X166760001Y-53655000D01*
G75*
G02*
X167010000Y-53904999I0J-249999D01*
G01*
X167010000Y-54555001D01*
G75*
G02*
X166760001Y-54805000I-249999J0D01*
G01*
G37*
%TD.AperFunction*%
%TO.P,C1,1*%
%TO.N,Net-(C1-Pad1)*%
%TA.AperFunction,SMDPad,CuDef*%
G36*
G01*
X166760001Y-56855000D02*
X165859999Y-56855000D01*
G75*
G02*
X165610000Y-56605001I0J249999D01*
G01*
X165610000Y-55954999D01*
G75*
G02*
X165859999Y-55705000I249999J0D01*
G01*
X166760001Y-55705000D01*
G75*
G02*
X167010000Y-55954999I0J-249999D01*
G01*
X167010000Y-56605001D01*
G75*
G02*
X166760001Y-56855000I-249999J0D01*
G01*
G37*
%TD.AperFunction*%
%TD*%
%TO.P,R1,2*%
%TO.N,GND*%
%TA.AperFunction,SMDPad,CuDef*%
G36*
G01*
X169010001Y-54805000D02*
X168109999Y-54805000D01*
G75*
G02*
X167860000Y-54555001I0J249999D01*
G01*
X167860000Y-53904999D01*
G75*
G02*
X168109999Y-53655000I249999J0D01*
G01*
X169010001Y-53655000D01*
G75*
G02*
X169260000Y-53904999I0J-249999D01*
G01*
X169260000Y-54555001D01*
G75*
G02*
X169010001Y-54805000I-249999J0D01*
G01*
G37*
%TD.AperFunction*%
%TO.P,R1,1*%
%TO.N,Net-(C1-Pad1)*%
%TA.AperFunction,SMDPad,CuDef*%
G36*
G01*
X169010001Y-56855000D02*
X168109999Y-56855000D01*
G75*
G02*
X167860000Y-56605001I0J249999D01*
G01*
X167860000Y-55954999D01*
G75*
G02*
X168109999Y-55705000I249999J0D01*
G01*
X169010001Y-55705000D01*
G75*
G02*
X169260000Y-55954999I0J-249999D01*
G01*
X169260000Y-56605001D01*
G75*
G02*
X169010001Y-56855000I-249999J0D01*
G01*
G37*
%TD.AperFunction*%
%TD*%
D14*
%TO.P,J1,S*%
%TO.N,Net-(C1-Pad1)*%
X155700000Y-54500000D03*
D15*
X155700000Y-58700000D03*
X164300000Y-58700000D03*
%TO.P,J1,A1*%
%TO.N,GND*%
%TA.AperFunction,SMDPad,CuDef*%
G36*
G01*
X163550000Y-53150000D02*
X163550000Y-54300000D01*
G75*
G02*
X163400000Y-54450000I-150000J0D01*
G01*
X163100000Y-54450000D01*
G75*
G02*
X162950000Y-54300000I0J150000D01*
G01*
X162950000Y-53150000D01*
G75*
G02*
X163100000Y-53000000I150000J0D01*
G01*
X163400000Y-53000000D01*
G75*
G02*
X163550000Y-53150000I0J-150000D01*
G01*
G37*
%TD.AperFunction*%
%TO.P,J1,B8*%
%TO.N,Net-(J1-PadB8)*%
%TA.AperFunction,SMDPad,CuDef*%
G36*
G01*
X161900000Y-53075000D02*
X161900000Y-54375000D01*
G75*
G02*
X161825000Y-54450000I-75000J0D01*
G01*
X161675000Y-54450000D01*
G75*
G02*
X161600000Y-54375000I0J75000D01*
G01*
X161600000Y-53075000D01*
G75*
G02*
X161675000Y-53000000I75000J0D01*
G01*
X161825000Y-53000000D01*
G75*
G02*
X161900000Y-53075000I0J-75000D01*
G01*
G37*
%TD.AperFunction*%
%TO.P,J1,A5*%
%TO.N,Net-(J1-PadA5)*%
%TA.AperFunction,SMDPad,CuDef*%
G36*
G01*
X161400000Y-53075000D02*
X161400000Y-54375000D01*
G75*
G02*
X161325000Y-54450000I-75000J0D01*
G01*
X161175000Y-54450000D01*
G75*
G02*
X161100000Y-54375000I0J75000D01*
G01*
X161100000Y-53075000D01*
G75*
G02*
X161175000Y-53000000I75000J0D01*
G01*
X161325000Y-53000000D01*
G75*
G02*
X161400000Y-53075000I0J-75000D01*
G01*
G37*
%TD.AperFunction*%
%TO.P,J1,B7*%
%TO.N,DBUS-*%
%TA.AperFunction,SMDPad,CuDef*%
G36*
G01*
X160900000Y-53075000D02*
X160900000Y-54375000D01*
G75*
G02*
X160825000Y-54450000I-75000J0D01*
G01*
X160675000Y-54450000D01*
G75*
G02*
X160600000Y-54375000I0J75000D01*
G01*
X160600000Y-53075000D01*
G75*
G02*
X160675000Y-53000000I75000J0D01*
G01*
X160825000Y-53000000D01*
G75*
G02*
X160900000Y-53075000I0J-75000D01*
G01*
G37*
%TD.AperFunction*%
%TO.P,J1,A6*%
%TO.N,DBUS+*%
%TA.AperFunction,SMDPad,CuDef*%
G36*
G01*
X160404000Y-53075000D02*
X160404000Y-54375000D01*
G75*
G02*
X160329000Y-54450000I-75000J0D01*
G01*
X160179000Y-54450000D01*
G75*
G02*
X160104000Y-54375000I0J75000D01*
G01*
X160104000Y-53075000D01*
G75*
G02*
X160179000Y-53000000I75000J0D01*
G01*
X160329000Y-53000000D01*
G75*
G02*
X160404000Y-53075000I0J-75000D01*
G01*
G37*
%TD.AperFunction*%
%TO.P,J1,B5*%
%TO.N,Net-(J1-PadB5)*%
%TA.AperFunction,SMDPad,CuDef*%
G36*
G01*
X158400000Y-53075000D02*
X158400000Y-54375000D01*
G75*
G02*
X158325000Y-54450000I-75000J0D01*
G01*
X158175000Y-54450000D01*
G75*
G02*
X158100000Y-54375000I0J75000D01*
G01*
X158100000Y-53075000D01*
G75*
G02*
X158175000Y-53000000I75000J0D01*
G01*
X158325000Y-53000000D01*
G75*
G02*
X158400000Y-53075000I0J-75000D01*
G01*
G37*
%TD.AperFunction*%
%TO.P,J1,A8*%
%TO.N,Net-(J1-PadA8)*%
%TA.AperFunction,SMDPad,CuDef*%
G36*
G01*
X158900000Y-53075000D02*
X158900000Y-54375000D01*
G75*
G02*
X158825000Y-54450000I-75000J0D01*
G01*
X158675000Y-54450000D01*
G75*
G02*
X158600000Y-54375000I0J75000D01*
G01*
X158600000Y-53075000D01*
G75*
G02*
X158675000Y-53000000I75000J0D01*
G01*
X158825000Y-53000000D01*
G75*
G02*
X158900000Y-53075000I0J-75000D01*
G01*
G37*
%TD.AperFunction*%
%TO.P,J1,B6*%
%TO.N,DBUS+*%
%TA.AperFunction,SMDPad,CuDef*%
G36*
G01*
X159400000Y-53075000D02*
X159400000Y-54375000D01*
G75*
G02*
X159325000Y-54450000I-75000J0D01*
G01*
X159175000Y-54450000D01*
G75*
G02*
X159100000Y-54375000I0J75000D01*
G01*
X159100000Y-53075000D01*
G75*
G02*
X159175000Y-53000000I75000J0D01*
G01*
X159325000Y-53000000D01*
G75*
G02*
X159400000Y-53075000I0J-75000D01*
G01*
G37*
%TD.AperFunction*%
%TO.P,J1,A7*%
%TO.N,DBUS-*%
%TA.AperFunction,SMDPad,CuDef*%
G36*
G01*
X159900000Y-53075000D02*
X159900000Y-54375000D01*
G75*
G02*
X159825000Y-54450000I-75000J0D01*
G01*
X159675000Y-54450000D01*
G75*
G02*
X159600000Y-54375000I0J75000D01*
G01*
X159600000Y-53075000D01*
G75*
G02*
X159675000Y-53000000I75000J0D01*
G01*
X159825000Y-53000000D01*
G75*
G02*
X159900000Y-53075000I0J-75000D01*
G01*
G37*
%TD.AperFunction*%
D14*
%TO.P,J1,S*%
%TO.N,Net-(C1-Pad1)*%
X164300000Y-54500000D03*
%TO.P,J1,A4*%
%TO.N,VBUS*%
%TA.AperFunction,SMDPad,CuDef*%
G36*
G01*
X162750000Y-53150000D02*
X162750000Y-54300000D01*
G75*
G02*
X162600000Y-54450000I-150000J0D01*
G01*
X162300000Y-54450000D01*
G75*
G02*
X162150000Y-54300000I0J150000D01*
G01*
X162150000Y-53150000D01*
G75*
G02*
X162300000Y-53000000I150000J0D01*
G01*
X162600000Y-53000000D01*
G75*
G02*
X162750000Y-53150000I0J-150000D01*
G01*
G37*
%TD.AperFunction*%
%TO.P,J1,B1*%
%TO.N,GND*%
%TA.AperFunction,SMDPad,CuDef*%
G36*
G01*
X157050000Y-53150000D02*
X157050000Y-54300000D01*
G75*
G02*
X156900000Y-54450000I-150000J0D01*
G01*
X156600000Y-54450000D01*
G75*
G02*
X156450000Y-54300000I0J150000D01*
G01*
X156450000Y-53150000D01*
G75*
G02*
X156600000Y-53000000I150000J0D01*
G01*
X156900000Y-53000000D01*
G75*
G02*
X157050000Y-53150000I0J-150000D01*
G01*
G37*
%TD.AperFunction*%
%TO.P,J1,B4*%
%TO.N,VBUS*%
%TA.AperFunction,SMDPad,CuDef*%
G36*
G01*
X157850000Y-53150000D02*
X157850000Y-54300000D01*
G75*
G02*
X157700000Y-54450000I-150000J0D01*
G01*
X157400000Y-54450000D01*
G75*
G02*
X157250000Y-54300000I0J150000D01*
G01*
X157250000Y-53150000D01*
G75*
G02*
X157400000Y-53000000I150000J0D01*
G01*
X157700000Y-53000000D01*
G75*
G02*
X157850000Y-53150000I0J-150000D01*
G01*
G37*
%TD.AperFunction*%
%TD*%
%TO.P,C6,2*%
%TO.N,GND*%
%TA.AperFunction,SMDPad,CuDef*%
G36*
G01*
X168471000Y-47059001D02*
X168471000Y-46158999D01*
G75*
G02*
X168720999Y-45909000I249999J0D01*
G01*
X169371001Y-45909000D01*
G75*
G02*
X169621000Y-46158999I0J-249999D01*
G01*
X169621000Y-47059001D01*
G75*
G02*
X169371001Y-47309000I-249999J0D01*
G01*
X168720999Y-47309000D01*
G75*
G02*
X168471000Y-47059001I0J249999D01*
G01*
G37*
%TD.AperFunction*%
%TO.P,C6,1*%
%TO.N,VFILTER*%
%TA.AperFunction,SMDPad,CuDef*%
G36*
G01*
X166421000Y-47059001D02*
X166421000Y-46158999D01*
G75*
G02*
X166670999Y-45909000I249999J0D01*
G01*
X167321001Y-45909000D01*
G75*
G02*
X167571000Y-46158999I0J-249999D01*
G01*
X167571000Y-47059001D01*
G75*
G02*
X167321001Y-47309000I-249999J0D01*
G01*
X166670999Y-47309000D01*
G75*
G02*
X166421000Y-47059001I0J249999D01*
G01*
G37*
%TD.AperFunction*%
%TD*%
%TO.P,C7,2*%
%TO.N,GND*%
%TA.AperFunction,SMDPad,CuDef*%
G36*
G01*
X168471000Y-45027001D02*
X168471000Y-44126999D01*
G75*
G02*
X168720999Y-43877000I249999J0D01*
G01*
X169371001Y-43877000D01*
G75*
G02*
X169621000Y-44126999I0J-249999D01*
G01*
X169621000Y-45027001D01*
G75*
G02*
X169371001Y-45277000I-249999J0D01*
G01*
X168720999Y-45277000D01*
G75*
G02*
X168471000Y-45027001I0J249999D01*
G01*
G37*
%TD.AperFunction*%
%TO.P,C7,1*%
%TO.N,VFILTER*%
%TA.AperFunction,SMDPad,CuDef*%
G36*
G01*
X166421000Y-45027001D02*
X166421000Y-44126999D01*
G75*
G02*
X166670999Y-43877000I249999J0D01*
G01*
X167321001Y-43877000D01*
G75*
G02*
X167571000Y-44126999I0J-249999D01*
G01*
X167571000Y-45027001D01*
G75*
G02*
X167321001Y-45277000I-249999J0D01*
G01*
X166670999Y-45277000D01*
G75*
G02*
X166421000Y-45027001I0J249999D01*
G01*
G37*
%TD.AperFunction*%
%TD*%
%TO.P,C5,2*%
%TO.N,GND*%
%TA.AperFunction,SMDPad,CuDef*%
G36*
G01*
X168480000Y-50869001D02*
X168480000Y-49968999D01*
G75*
G02*
X168729999Y-49719000I249999J0D01*
G01*
X169380001Y-49719000D01*
G75*
G02*
X169630000Y-49968999I0J-249999D01*
G01*
X169630000Y-50869001D01*
G75*
G02*
X169380001Y-51119000I-249999J0D01*
G01*
X168729999Y-51119000D01*
G75*
G02*
X168480000Y-50869001I0J249999D01*
G01*
G37*
%TD.AperFunction*%
%TO.P,C5,1*%
%TO.N,VBUS*%
%TA.AperFunction,SMDPad,CuDef*%
G36*
G01*
X166430000Y-50869001D02*
X166430000Y-49968999D01*
G75*
G02*
X166679999Y-49719000I249999J0D01*
G01*
X167330001Y-49719000D01*
G75*
G02*
X167580000Y-49968999I0J-249999D01*
G01*
X167580000Y-50869001D01*
G75*
G02*
X167330001Y-51119000I-249999J0D01*
G01*
X166679999Y-51119000D01*
G75*
G02*
X166430000Y-50869001I0J249999D01*
G01*
G37*
%TD.AperFunction*%
%TD*%
%TO.P,FB1,1*%
%TO.N,VFILTER*%
%TA.AperFunction,SMDPad,CuDef*%
G36*
G01*
X169294000Y-48276500D02*
X169294000Y-48751500D01*
G75*
G02*
X169056500Y-48989000I-237500J0D01*
G01*
X168481500Y-48989000D01*
G75*
G02*
X168244000Y-48751500I0J237500D01*
G01*
X168244000Y-48276500D01*
G75*
G02*
X168481500Y-48039000I237500J0D01*
G01*
X169056500Y-48039000D01*
G75*
G02*
X169294000Y-48276500I0J-237500D01*
G01*
G37*
%TD.AperFunction*%
%TO.P,FB1,2*%
%TO.N,VBUS*%
%TA.AperFunction,SMDPad,CuDef*%
G36*
G01*
X167544000Y-48276500D02*
X167544000Y-48751500D01*
G75*
G02*
X167306500Y-48989000I-237500J0D01*
G01*
X166731500Y-48989000D01*
G75*
G02*
X166494000Y-48751500I0J237500D01*
G01*
X166494000Y-48276500D01*
G75*
G02*
X166731500Y-48039000I237500J0D01*
G01*
X167306500Y-48039000D01*
G75*
G02*
X167544000Y-48276500I0J-237500D01*
G01*
G37*
%TD.AperFunction*%
%TD*%
D16*
%TO.N,GND*%
X152517990Y-52197000D03*
X156718000Y-52197000D03*
X163195000Y-52197000D03*
X167386000Y-52197000D03*
X156845000Y-43815000D03*
X160782000Y-43815000D03*
X152527000Y-37338000D03*
X157226000Y-37338000D03*
X162179000Y-35306000D03*
X167259000Y-38735000D03*
%TO.N,Net-(C1-Pad1)*%
X164300000Y-56595000D03*
X155710000Y-56605000D03*
%TO.N,VBUS*%
X157517000Y-51435000D03*
X162433000Y-51435000D03*
X166624000Y-51435000D03*
%TO.N,3.3V*%
X168910000Y-34417000D03*
%TO.N,Net-(J1-PadA5)*%
X153543000Y-50800000D03*
X161290000Y-50800000D03*
%TO.N,Net-(J1-PadB5)*%
X151384000Y-50165000D03*
X158242000Y-50165000D03*
%TO.N,DBUS-*%
X160528000Y-49022000D03*
X151511000Y-49022000D03*
%TO.N,DBUS+*%
X159796010Y-48163010D03*
X153543000Y-48260000D03*
%TO.N,D+*%
X153543000Y-38608000D03*
%TO.N,D-*%
X151511000Y-39243000D03*
%TO.N,VFILTER*%
X168910000Y-40513000D03*
X157734000Y-40513000D03*
X155575000Y-47117000D03*
X152527000Y-47244000D03*
%TD*%
D17*
%TO.N,GND*%
X152518000Y-56397000D02*
X153543000Y-56397000D01*
X151384000Y-56397000D02*
X152518000Y-56397000D01*
X152518000Y-56397000D02*
X152518000Y-54910190D01*
X152517990Y-54910180D02*
X152517990Y-52333010D01*
X152518000Y-54910190D02*
X152517990Y-54910180D01*
X156718000Y-54243000D02*
X156750000Y-54275000D01*
X156718000Y-52197000D02*
X156718000Y-54243000D01*
X163195000Y-54220000D02*
X163250000Y-54275000D01*
X163195000Y-52197000D02*
X163195000Y-54220000D01*
X167387000Y-52198000D02*
X167386000Y-52197000D01*
X167387000Y-54230000D02*
X167387000Y-52198000D01*
X167387000Y-54230000D02*
X168560000Y-54230000D01*
X166310000Y-54230000D02*
X167387000Y-54230000D01*
X169046000Y-44577000D02*
X169046000Y-46609000D01*
X169619010Y-49854990D02*
X169055000Y-50419000D01*
X169619010Y-47182010D02*
X169619010Y-49854990D01*
X169046000Y-46609000D02*
X169619010Y-47182010D01*
X167386000Y-52197000D02*
X169037000Y-52197000D01*
X169037000Y-50437000D02*
X169055000Y-50419000D01*
X169037000Y-52197000D02*
X169037000Y-50437000D01*
X163195000Y-47616000D02*
X162560000Y-46981000D01*
X163195000Y-52197000D02*
X163195000Y-47616000D01*
X155575000Y-43806000D02*
X156836000Y-43806000D01*
X156836000Y-43806000D02*
X156845000Y-43815000D01*
X160782000Y-43815000D02*
X160782000Y-46990000D01*
X162551000Y-46990000D02*
X162560000Y-46981000D01*
X160782000Y-46990000D02*
X162551000Y-46990000D01*
X165014000Y-37329000D02*
X165039000Y-37354000D01*
X163068000Y-37329000D02*
X165014000Y-37329000D01*
X152527000Y-43731000D02*
X152527000Y-37338000D01*
X163059000Y-37338000D02*
X163068000Y-37329000D01*
X157226000Y-37338000D02*
X163059000Y-37338000D01*
X163068000Y-37329000D02*
X163068000Y-36195000D01*
X163068000Y-36195000D02*
X162179000Y-35306000D01*
X168910000Y-39252000D02*
X167776000Y-39252000D01*
X167776000Y-39252000D02*
X167259000Y-38735000D01*
%TO.N,Net-(C1-Pad1)*%
X155700000Y-56615000D02*
X155700000Y-58700000D01*
X164300000Y-58700000D02*
X164300000Y-56595000D01*
X155700000Y-54603002D02*
X155700000Y-56615000D01*
X164300000Y-56595000D02*
X164300000Y-54500000D01*
X164300000Y-56595000D02*
X165995000Y-56595000D01*
X166310000Y-56280000D02*
X168560000Y-56280000D01*
X165995000Y-56595000D02*
X166310000Y-56280000D01*
%TO.N,Net-(C2-Pad1)*%
X162950000Y-42291000D02*
X162560000Y-42681000D01*
X165898500Y-42291000D02*
X162950000Y-42291000D01*
X162560000Y-39887000D02*
X163068000Y-39379000D01*
X162560000Y-42681000D02*
X162560000Y-39887000D01*
X165964000Y-39379000D02*
X165989000Y-39354000D01*
X163068000Y-39379000D02*
X165964000Y-39379000D01*
X165524000Y-35560000D02*
X165989000Y-36025000D01*
X164767002Y-39379000D02*
X163068000Y-39379000D01*
X165989000Y-38157002D02*
X164767002Y-39379000D01*
X165989000Y-36025000D02*
X165989000Y-38157002D01*
%TO.N,VBUS*%
X157516999Y-51435001D02*
X157517000Y-51435000D01*
X157550000Y-54275000D02*
X157516999Y-54241999D01*
X157516999Y-54241999D02*
X157516999Y-51435001D01*
X162433000Y-54258000D02*
X162450000Y-54275000D01*
X162433000Y-51435000D02*
X162433000Y-54258000D01*
X166624000Y-50800000D02*
X167005000Y-50419000D01*
X166624000Y-51435000D02*
X166624000Y-50800000D01*
X167005000Y-48528000D02*
X167019000Y-48514000D01*
X167005000Y-50419000D02*
X167005000Y-48528000D01*
%TO.N,3.3V*%
X168758000Y-37354000D02*
X168910000Y-37202000D01*
X167724000Y-37327000D02*
X167751000Y-37354000D01*
X167724000Y-35560000D02*
X167724000Y-37327000D01*
X166939000Y-37354000D02*
X167751000Y-37354000D01*
X167751000Y-37354000D02*
X168758000Y-37354000D01*
X168910000Y-34417000D02*
X168910000Y-37202000D01*
%TO.N,Net-(J1-PadA5)*%
X153543000Y-50800000D02*
X153543000Y-54347000D01*
X161250000Y-50840000D02*
X161290000Y-50800000D01*
X161250000Y-54275000D02*
X161250000Y-50840000D01*
%TO.N,Net-(J1-PadB5)*%
X151384000Y-54347000D02*
X151384000Y-50165000D01*
X158242000Y-54267000D02*
X158250000Y-54275000D01*
X158242000Y-50165000D02*
X158242000Y-54267000D01*
%TO.N,DBUS-*%
X160494692Y-54775010D02*
X160750000Y-54519702D01*
X160013308Y-54775010D02*
X160494692Y-54775010D01*
X160750000Y-54519702D02*
X160750000Y-54275000D01*
X159750000Y-54511702D02*
X160013308Y-54775010D01*
X159750000Y-54275000D02*
X159750000Y-54511702D01*
X160528000Y-51111002D02*
X160528000Y-49022000D01*
X160750000Y-54275000D02*
X160750000Y-51333002D01*
X160750000Y-51333002D02*
X160528000Y-51111002D01*
X151511000Y-45997000D02*
X151577000Y-45931000D01*
X151511000Y-49022000D02*
X151511000Y-45997000D01*
%TO.N,DBUS+*%
X159250000Y-52934298D02*
X159250000Y-54275000D01*
X159509308Y-52674990D02*
X159250000Y-52934298D01*
X160254000Y-52938298D02*
X159990692Y-52674990D01*
X160254000Y-54275000D02*
X160254000Y-52938298D01*
X159796010Y-52674990D02*
X159796010Y-48163010D01*
X159796010Y-52674990D02*
X159509308Y-52674990D01*
X159990692Y-52674990D02*
X159796010Y-52674990D01*
X153477000Y-48194000D02*
X153543000Y-48260000D01*
X153477000Y-45931000D02*
X153477000Y-48194000D01*
%TO.N,D+*%
X153477000Y-43731000D02*
X153477000Y-38674000D01*
X153477000Y-38674000D02*
X153543000Y-38608000D01*
%TO.N,D-*%
X151577000Y-43731000D02*
X151577000Y-39309000D01*
X151577000Y-39309000D02*
X151511000Y-39243000D01*
%TO.N,VFILTER*%
X168769000Y-48382000D02*
X166996000Y-46609000D01*
X168769000Y-48514000D02*
X168769000Y-48382000D01*
X166996000Y-46609000D02*
X166996000Y-44577000D01*
X166996000Y-44168500D02*
X168873500Y-42291000D01*
X166996000Y-44577000D02*
X166996000Y-44168500D01*
X168873500Y-42291000D02*
X168873500Y-40549500D01*
X168873500Y-40549500D02*
X168910000Y-40513000D01*
X155575000Y-45856000D02*
X157471000Y-45856000D01*
X157734000Y-45593000D02*
X157734000Y-40513000D01*
X157471000Y-45856000D02*
X157734000Y-45593000D01*
X155575000Y-45856000D02*
X155575000Y-47117000D01*
X152527000Y-47244000D02*
X152527000Y-45931000D01*
%TD*%
D18*
%TO.N,GND*%
G36*
X151511000Y-56270000D02*
G01*
X153416000Y-56270000D01*
X153416000Y-56250000D01*
X153670000Y-56250000D01*
X153670000Y-56270000D01*
X153690000Y-56270000D01*
X153690000Y-56524000D01*
X153670000Y-56524000D01*
X153670000Y-57448250D01*
X153828750Y-57607000D01*
X154243000Y-57610072D01*
X154367482Y-57597812D01*
X154487180Y-57561502D01*
X154597494Y-57502537D01*
X154694185Y-57423185D01*
X154773537Y-57326494D01*
X154832502Y-57216180D01*
X154845332Y-57173884D01*
X154906063Y-57264774D01*
X154940000Y-57298711D01*
X154940000Y-57361385D01*
X154786973Y-57486972D01*
X154626392Y-57682638D01*
X154507071Y-57905873D01*
X154433593Y-58148096D01*
X154415000Y-58336877D01*
X154415000Y-59063122D01*
X154433593Y-59251903D01*
X154452733Y-59315000D01*
X150685000Y-59315000D01*
X150685000Y-57610065D01*
X151098250Y-57607000D01*
X151257000Y-57448250D01*
X151257000Y-56524000D01*
X151511000Y-56524000D01*
X151511000Y-57448250D01*
X151669750Y-57607000D01*
X152084000Y-57610072D01*
X152208482Y-57597812D01*
X152328180Y-57561502D01*
X152438494Y-57502537D01*
X152463500Y-57482015D01*
X152488506Y-57502537D01*
X152598820Y-57561502D01*
X152718518Y-57597812D01*
X152843000Y-57610072D01*
X153257250Y-57607000D01*
X153416000Y-57448250D01*
X153416000Y-56524000D01*
X151511000Y-56524000D01*
X151257000Y-56524000D01*
X151237000Y-56524000D01*
X151237000Y-56270000D01*
X151257000Y-56270000D01*
X151257000Y-56250000D01*
X151511000Y-56250000D01*
X151511000Y-56270000D01*
G37*
X151511000Y-56270000D02*
X153416000Y-56270000D01*
X153416000Y-56250000D01*
X153670000Y-56250000D01*
X153670000Y-56270000D01*
X153690000Y-56270000D01*
X153690000Y-56524000D01*
X153670000Y-56524000D01*
X153670000Y-57448250D01*
X153828750Y-57607000D01*
X154243000Y-57610072D01*
X154367482Y-57597812D01*
X154487180Y-57561502D01*
X154597494Y-57502537D01*
X154694185Y-57423185D01*
X154773537Y-57326494D01*
X154832502Y-57216180D01*
X154845332Y-57173884D01*
X154906063Y-57264774D01*
X154940000Y-57298711D01*
X154940000Y-57361385D01*
X154786973Y-57486972D01*
X154626392Y-57682638D01*
X154507071Y-57905873D01*
X154433593Y-58148096D01*
X154415000Y-58336877D01*
X154415000Y-59063122D01*
X154433593Y-59251903D01*
X154452733Y-59315000D01*
X150685000Y-59315000D01*
X150685000Y-57610065D01*
X151098250Y-57607000D01*
X151257000Y-57448250D01*
X151257000Y-56524000D01*
X151511000Y-56524000D01*
X151511000Y-57448250D01*
X151669750Y-57607000D01*
X152084000Y-57610072D01*
X152208482Y-57597812D01*
X152328180Y-57561502D01*
X152438494Y-57502537D01*
X152463500Y-57482015D01*
X152488506Y-57502537D01*
X152598820Y-57561502D01*
X152718518Y-57597812D01*
X152843000Y-57610072D01*
X153257250Y-57607000D01*
X153416000Y-57448250D01*
X153416000Y-56524000D01*
X151511000Y-56524000D01*
X151257000Y-56524000D01*
X151237000Y-56524000D01*
X151237000Y-56270000D01*
X151257000Y-56270000D01*
X151257000Y-56250000D01*
X151511000Y-56250000D01*
X151511000Y-56270000D01*
G36*
X169315000Y-33464481D02*
G01*
X169211898Y-33421774D01*
X169011939Y-33382000D01*
X168808061Y-33382000D01*
X168608102Y-33421774D01*
X168419744Y-33499795D01*
X168250226Y-33613063D01*
X168106063Y-33757226D01*
X167992795Y-33926744D01*
X167914774Y-34115102D01*
X167875000Y-34315061D01*
X167875000Y-34518939D01*
X167905431Y-34671928D01*
X167474000Y-34671928D01*
X167349518Y-34684188D01*
X167229820Y-34720498D01*
X167119506Y-34779463D01*
X167022815Y-34858815D01*
X166943463Y-34955506D01*
X166884498Y-35065820D01*
X166848188Y-35185518D01*
X166835928Y-35310000D01*
X166835928Y-35810000D01*
X166848188Y-35934482D01*
X166884498Y-36054180D01*
X166943463Y-36164494D01*
X166964000Y-36189519D01*
X166964000Y-36265928D01*
X166749000Y-36265928D01*
X166749000Y-36062322D01*
X166752676Y-36024999D01*
X166749000Y-35987676D01*
X166749000Y-35987667D01*
X166738003Y-35876014D01*
X166694546Y-35732753D01*
X166623974Y-35600724D01*
X166529001Y-35484999D01*
X166499998Y-35461197D01*
X166412072Y-35373271D01*
X166412072Y-35310000D01*
X166399812Y-35185518D01*
X166363502Y-35065820D01*
X166304537Y-34955506D01*
X166225185Y-34858815D01*
X166128494Y-34779463D01*
X166018180Y-34720498D01*
X165898482Y-34684188D01*
X165774000Y-34671928D01*
X165274000Y-34671928D01*
X165149518Y-34684188D01*
X165029820Y-34720498D01*
X164919506Y-34779463D01*
X164822815Y-34858815D01*
X164743463Y-34955506D01*
X164684498Y-35065820D01*
X164648188Y-35185518D01*
X164635928Y-35310000D01*
X164635928Y-35810000D01*
X164648188Y-35934482D01*
X164684498Y-36054180D01*
X164743463Y-36164494D01*
X164822815Y-36261185D01*
X164911998Y-36334375D01*
X164911998Y-36427748D01*
X164753250Y-36269000D01*
X164639000Y-36265928D01*
X164514518Y-36278188D01*
X164394820Y-36314498D01*
X164284506Y-36373463D01*
X164280119Y-36377063D01*
X164219185Y-36302815D01*
X164122494Y-36223463D01*
X164012180Y-36164498D01*
X163892482Y-36128188D01*
X163768000Y-36115928D01*
X163353750Y-36119000D01*
X163195000Y-36277750D01*
X163195000Y-37202000D01*
X164137750Y-37202000D01*
X164162750Y-37227000D01*
X164912000Y-37227000D01*
X164912000Y-37207000D01*
X165166000Y-37207000D01*
X165166000Y-37227000D01*
X165186000Y-37227000D01*
X165186000Y-37481000D01*
X165166000Y-37481000D01*
X165166000Y-37501000D01*
X164912000Y-37501000D01*
X164912000Y-37481000D01*
X164269250Y-37481000D01*
X164244250Y-37456000D01*
X163195000Y-37456000D01*
X163195000Y-37476000D01*
X162941000Y-37476000D01*
X162941000Y-37456000D01*
X161891750Y-37456000D01*
X161733000Y-37614750D01*
X161729928Y-37904000D01*
X161742188Y-38028482D01*
X161778498Y-38148180D01*
X161837463Y-38258494D01*
X161916815Y-38355185D01*
X161996594Y-38420658D01*
X161990038Y-38426038D01*
X161879595Y-38560613D01*
X161797528Y-38714149D01*
X161746992Y-38880745D01*
X161729928Y-39053999D01*
X161729928Y-39704001D01*
X161746992Y-39877255D01*
X161797528Y-40043851D01*
X161800001Y-40048478D01*
X161800001Y-40792928D01*
X161410000Y-40792928D01*
X161285518Y-40805188D01*
X161165820Y-40841498D01*
X161055506Y-40900463D01*
X160958815Y-40979815D01*
X160879463Y-41076506D01*
X160820498Y-41186820D01*
X160784188Y-41306518D01*
X160771928Y-41431000D01*
X160771928Y-43931000D01*
X160784188Y-44055482D01*
X160820498Y-44175180D01*
X160879463Y-44285494D01*
X160958815Y-44382185D01*
X161055506Y-44461537D01*
X161165820Y-44520502D01*
X161285518Y-44556812D01*
X161410000Y-44569072D01*
X163710000Y-44569072D01*
X163834482Y-44556812D01*
X163954180Y-44520502D01*
X164064494Y-44461537D01*
X164161185Y-44382185D01*
X164240537Y-44285494D01*
X164299502Y-44175180D01*
X164335812Y-44055482D01*
X164348072Y-43931000D01*
X164348072Y-43051000D01*
X164561224Y-43051000D01*
X164564992Y-43089254D01*
X164615528Y-43255850D01*
X164697595Y-43409386D01*
X164808038Y-43543962D01*
X164942614Y-43654405D01*
X165096150Y-43736472D01*
X165262746Y-43787008D01*
X165436000Y-43804072D01*
X165845394Y-43804072D01*
X165799992Y-43953745D01*
X165782928Y-44126999D01*
X165782928Y-45027001D01*
X165799992Y-45200255D01*
X165850528Y-45366851D01*
X165932595Y-45520387D01*
X165992187Y-45593000D01*
X165932595Y-45665613D01*
X165850528Y-45819149D01*
X165799992Y-45985745D01*
X165782928Y-46158999D01*
X165782928Y-47059001D01*
X165799992Y-47232255D01*
X165850528Y-47398851D01*
X165932595Y-47552387D01*
X166043038Y-47686962D01*
X166069963Y-47709059D01*
X166003488Y-47790058D01*
X165922577Y-47941433D01*
X165872752Y-48105684D01*
X165855928Y-48276500D01*
X165855928Y-48751500D01*
X165872752Y-48922316D01*
X165922577Y-49086567D01*
X166003488Y-49237942D01*
X166073585Y-49323355D01*
X166052038Y-49341038D01*
X165941595Y-49475613D01*
X165859528Y-49629149D01*
X165808992Y-49795745D01*
X165791928Y-49968999D01*
X165791928Y-50817333D01*
X165706795Y-50944744D01*
X165628774Y-51133102D01*
X165589000Y-51333061D01*
X165589000Y-51536939D01*
X165628774Y-51736898D01*
X165706795Y-51925256D01*
X165820063Y-52094774D01*
X165964226Y-52238937D01*
X166133744Y-52352205D01*
X166322102Y-52430226D01*
X166522061Y-52470000D01*
X166725939Y-52470000D01*
X166925898Y-52430226D01*
X167114256Y-52352205D01*
X167283774Y-52238937D01*
X167427937Y-52094774D01*
X167541205Y-51925256D01*
X167619226Y-51736898D01*
X167626015Y-51702770D01*
X167669851Y-51689472D01*
X167823387Y-51607405D01*
X167957962Y-51496962D01*
X167963342Y-51490406D01*
X168028815Y-51570185D01*
X168125506Y-51649537D01*
X168235820Y-51708502D01*
X168355518Y-51744812D01*
X168480000Y-51757072D01*
X168769250Y-51754000D01*
X168928000Y-51595250D01*
X168928000Y-50546000D01*
X168908000Y-50546000D01*
X168908000Y-50292000D01*
X168928000Y-50292000D01*
X168928000Y-50272000D01*
X169182000Y-50272000D01*
X169182000Y-50292000D01*
X169202000Y-50292000D01*
X169202000Y-50546000D01*
X169182000Y-50546000D01*
X169182000Y-51595250D01*
X169315001Y-51728251D01*
X169315001Y-53022345D01*
X169260000Y-53016928D01*
X168845750Y-53020000D01*
X168687000Y-53178750D01*
X168687000Y-54103000D01*
X168707000Y-54103000D01*
X168707000Y-54357000D01*
X168687000Y-54357000D01*
X168687000Y-54377000D01*
X168433000Y-54377000D01*
X168433000Y-54357000D01*
X166437000Y-54357000D01*
X166437000Y-54377000D01*
X166183000Y-54377000D01*
X166183000Y-54357000D01*
X166163000Y-54357000D01*
X166163000Y-54103000D01*
X166183000Y-54103000D01*
X166183000Y-53178750D01*
X166437000Y-53178750D01*
X166437000Y-54103000D01*
X168433000Y-54103000D01*
X168433000Y-53178750D01*
X168274250Y-53020000D01*
X167860000Y-53016928D01*
X167735518Y-53029188D01*
X167615820Y-53065498D01*
X167505506Y-53124463D01*
X167435000Y-53182326D01*
X167364494Y-53124463D01*
X167254180Y-53065498D01*
X167134482Y-53029188D01*
X167010000Y-53016928D01*
X166595750Y-53020000D01*
X166437000Y-53178750D01*
X166183000Y-53178750D01*
X166024250Y-53020000D01*
X165610000Y-53016928D01*
X165485518Y-53029188D01*
X165365820Y-53065498D01*
X165255506Y-53124463D01*
X165195727Y-53173522D01*
X165141975Y-53108025D01*
X164961536Y-52959942D01*
X164755674Y-52849906D01*
X164532300Y-52782147D01*
X164300000Y-52759267D01*
X164145174Y-52774516D01*
X164139502Y-52755820D01*
X164080537Y-52645506D01*
X164001185Y-52548815D01*
X163904494Y-52469463D01*
X163794180Y-52410498D01*
X163674482Y-52374188D01*
X163550000Y-52361928D01*
X163535750Y-52365000D01*
X163377000Y-52523750D01*
X163377000Y-53037587D01*
X163372929Y-52996255D01*
X163328084Y-52848418D01*
X163255258Y-52712171D01*
X163193000Y-52636309D01*
X163193000Y-52138711D01*
X163236937Y-52094774D01*
X163350205Y-51925256D01*
X163428226Y-51736898D01*
X163468000Y-51536939D01*
X163468000Y-51333061D01*
X163428226Y-51133102D01*
X163350205Y-50944744D01*
X163236937Y-50775226D01*
X163092774Y-50631063D01*
X162923256Y-50517795D01*
X162734898Y-50439774D01*
X162534939Y-50400000D01*
X162331061Y-50400000D01*
X162251173Y-50415891D01*
X162207205Y-50309744D01*
X162093937Y-50140226D01*
X161949774Y-49996063D01*
X161780256Y-49882795D01*
X161591898Y-49804774D01*
X161391939Y-49765000D01*
X161288000Y-49765000D01*
X161288000Y-49725711D01*
X161331937Y-49681774D01*
X161445205Y-49512256D01*
X161523226Y-49323898D01*
X161563000Y-49123939D01*
X161563000Y-48920061D01*
X161552757Y-48868565D01*
X162274250Y-48866000D01*
X162433000Y-48707250D01*
X162433000Y-47108000D01*
X162687000Y-47108000D01*
X162687000Y-48707250D01*
X162845750Y-48866000D01*
X163710000Y-48869072D01*
X163834482Y-48856812D01*
X163954180Y-48820502D01*
X164064494Y-48761537D01*
X164161185Y-48682185D01*
X164240537Y-48585494D01*
X164299502Y-48475180D01*
X164335812Y-48355482D01*
X164348072Y-48231000D01*
X164345000Y-47266750D01*
X164186250Y-47108000D01*
X162687000Y-47108000D01*
X162433000Y-47108000D01*
X160933750Y-47108000D01*
X160775000Y-47266750D01*
X160773245Y-47817678D01*
X160713215Y-47672754D01*
X160599947Y-47503236D01*
X160455784Y-47359073D01*
X160286266Y-47245805D01*
X160097908Y-47167784D01*
X159897949Y-47128010D01*
X159694071Y-47128010D01*
X159494112Y-47167784D01*
X159305754Y-47245805D01*
X159136236Y-47359073D01*
X158992073Y-47503236D01*
X158878805Y-47672754D01*
X158800784Y-47861112D01*
X158761010Y-48061071D01*
X158761010Y-48264949D01*
X158800784Y-48464908D01*
X158878805Y-48653266D01*
X158992073Y-48822784D01*
X159036011Y-48866722D01*
X159036011Y-49495300D01*
X158901774Y-49361063D01*
X158732256Y-49247795D01*
X158543898Y-49169774D01*
X158343939Y-49130000D01*
X158140061Y-49130000D01*
X157940102Y-49169774D01*
X157751744Y-49247795D01*
X157582226Y-49361063D01*
X157438063Y-49505226D01*
X157324795Y-49674744D01*
X157246774Y-49863102D01*
X157207000Y-50063061D01*
X157207000Y-50266939D01*
X157240379Y-50434746D01*
X157215102Y-50439774D01*
X157026744Y-50517795D01*
X156857226Y-50631063D01*
X156713063Y-50775226D01*
X156599795Y-50944744D01*
X156521774Y-51133102D01*
X156482000Y-51333061D01*
X156482000Y-51536939D01*
X156521774Y-51736898D01*
X156599795Y-51925256D01*
X156713063Y-52094774D01*
X156757000Y-52138711D01*
X156757000Y-52697235D01*
X156744742Y-52712171D01*
X156671916Y-52848418D01*
X156627071Y-52996255D01*
X156623000Y-53037587D01*
X156623000Y-52523750D01*
X156464250Y-52365000D01*
X156450000Y-52361928D01*
X156325518Y-52374188D01*
X156205820Y-52410498D01*
X156095506Y-52469463D01*
X155998815Y-52548815D01*
X155919463Y-52645506D01*
X155860498Y-52755820D01*
X155854827Y-52774516D01*
X155700000Y-52759267D01*
X155467701Y-52782147D01*
X155244327Y-52849906D01*
X155038465Y-52959942D01*
X154858026Y-53108025D01*
X154709943Y-53288464D01*
X154640673Y-53418056D01*
X154620962Y-53394038D01*
X154486387Y-53283595D01*
X154332851Y-53201528D01*
X154303000Y-53192473D01*
X154303000Y-51503711D01*
X154346937Y-51459774D01*
X154460205Y-51290256D01*
X154538226Y-51101898D01*
X154578000Y-50901939D01*
X154578000Y-50698061D01*
X154538226Y-50498102D01*
X154460205Y-50309744D01*
X154346937Y-50140226D01*
X154202774Y-49996063D01*
X154033256Y-49882795D01*
X153844898Y-49804774D01*
X153644939Y-49765000D01*
X153441061Y-49765000D01*
X153241102Y-49804774D01*
X153052744Y-49882795D01*
X152883226Y-49996063D01*
X152739063Y-50140226D01*
X152625795Y-50309744D01*
X152547774Y-50498102D01*
X152508000Y-50698061D01*
X152508000Y-50901939D01*
X152547774Y-51101898D01*
X152625795Y-51290256D01*
X152739063Y-51459774D01*
X152783000Y-51503711D01*
X152783001Y-53192473D01*
X152753149Y-53201528D01*
X152599613Y-53283595D01*
X152465038Y-53394038D01*
X152463500Y-53395912D01*
X152461962Y-53394038D01*
X152327387Y-53283595D01*
X152173851Y-53201528D01*
X152144000Y-53192473D01*
X152144000Y-50868711D01*
X152187937Y-50824774D01*
X152301205Y-50655256D01*
X152379226Y-50466898D01*
X152419000Y-50266939D01*
X152419000Y-50063061D01*
X152379226Y-49863102D01*
X152307286Y-49689425D01*
X152314937Y-49681774D01*
X152428205Y-49512256D01*
X152506226Y-49323898D01*
X152546000Y-49123939D01*
X152546000Y-48920061D01*
X152506226Y-48720102D01*
X152428205Y-48531744D01*
X152314937Y-48362226D01*
X152271000Y-48318289D01*
X152271000Y-48248356D01*
X152425061Y-48279000D01*
X152508000Y-48279000D01*
X152508000Y-48361939D01*
X152547774Y-48561898D01*
X152625795Y-48750256D01*
X152739063Y-48919774D01*
X152883226Y-49063937D01*
X153052744Y-49177205D01*
X153241102Y-49255226D01*
X153441061Y-49295000D01*
X153644939Y-49295000D01*
X153844898Y-49255226D01*
X154033256Y-49177205D01*
X154202774Y-49063937D01*
X154346937Y-48919774D01*
X154460205Y-48750256D01*
X154538226Y-48561898D01*
X154578000Y-48361939D01*
X154578000Y-48158061D01*
X154538226Y-47958102D01*
X154460205Y-47769744D01*
X154346937Y-47600226D01*
X154237000Y-47490289D01*
X154237000Y-46925468D01*
X154253185Y-46912185D01*
X154332537Y-46815494D01*
X154391502Y-46705180D01*
X154396998Y-46687063D01*
X154497038Y-46808962D01*
X154569213Y-46868195D01*
X154540000Y-47015061D01*
X154540000Y-47218939D01*
X154579774Y-47418898D01*
X154657795Y-47607256D01*
X154771063Y-47776774D01*
X154915226Y-47920937D01*
X155084744Y-48034205D01*
X155273102Y-48112226D01*
X155473061Y-48152000D01*
X155676939Y-48152000D01*
X155876898Y-48112226D01*
X156065256Y-48034205D01*
X156234774Y-47920937D01*
X156378937Y-47776774D01*
X156492205Y-47607256D01*
X156570226Y-47418898D01*
X156610000Y-47218939D01*
X156610000Y-47015061D01*
X156580787Y-46868195D01*
X156652962Y-46808962D01*
X156763405Y-46674387D01*
X156794614Y-46616000D01*
X157433678Y-46616000D01*
X157471000Y-46619676D01*
X157508322Y-46616000D01*
X157508333Y-46616000D01*
X157619986Y-46605003D01*
X157763247Y-46561546D01*
X157895276Y-46490974D01*
X158011001Y-46396001D01*
X158034804Y-46366997D01*
X158244998Y-46156803D01*
X158274001Y-46133001D01*
X158368974Y-46017276D01*
X158439546Y-45885247D01*
X158483003Y-45741986D01*
X158484085Y-45731000D01*
X160771928Y-45731000D01*
X160775000Y-46695250D01*
X160933750Y-46854000D01*
X162433000Y-46854000D01*
X162433000Y-45254750D01*
X162687000Y-45254750D01*
X162687000Y-46854000D01*
X164186250Y-46854000D01*
X164345000Y-46695250D01*
X164348072Y-45731000D01*
X164335812Y-45606518D01*
X164299502Y-45486820D01*
X164240537Y-45376506D01*
X164161185Y-45279815D01*
X164064494Y-45200463D01*
X163954180Y-45141498D01*
X163834482Y-45105188D01*
X163710000Y-45092928D01*
X162845750Y-45096000D01*
X162687000Y-45254750D01*
X162433000Y-45254750D01*
X162274250Y-45096000D01*
X161410000Y-45092928D01*
X161285518Y-45105188D01*
X161165820Y-45141498D01*
X161055506Y-45200463D01*
X160958815Y-45279815D01*
X160879463Y-45376506D01*
X160820498Y-45486820D01*
X160784188Y-45606518D01*
X160771928Y-45731000D01*
X158484085Y-45731000D01*
X158494000Y-45630333D01*
X158494000Y-45630324D01*
X158497676Y-45593001D01*
X158494000Y-45555678D01*
X158494000Y-41216711D01*
X158537937Y-41172774D01*
X158651205Y-41003256D01*
X158729226Y-40814898D01*
X158769000Y-40614939D01*
X158769000Y-40411061D01*
X158729226Y-40211102D01*
X158651205Y-40022744D01*
X158537937Y-39853226D01*
X158393774Y-39709063D01*
X158224256Y-39595795D01*
X158035898Y-39517774D01*
X157835939Y-39478000D01*
X157632061Y-39478000D01*
X157432102Y-39517774D01*
X157243744Y-39595795D01*
X157074226Y-39709063D01*
X156930063Y-39853226D01*
X156816795Y-40022744D01*
X156738774Y-40211102D01*
X156699000Y-40411061D01*
X156699000Y-40614939D01*
X156738774Y-40814898D01*
X156816795Y-41003256D01*
X156930063Y-41172774D01*
X156974001Y-41216712D01*
X156974000Y-45096000D01*
X156794614Y-45096000D01*
X156763405Y-45037613D01*
X156652962Y-44903038D01*
X156646406Y-44897658D01*
X156726185Y-44832185D01*
X156805537Y-44735494D01*
X156864502Y-44625180D01*
X156900812Y-44505482D01*
X156913072Y-44381000D01*
X156910000Y-44091750D01*
X156751250Y-43933000D01*
X155702000Y-43933000D01*
X155702000Y-43953000D01*
X155448000Y-43953000D01*
X155448000Y-43933000D01*
X155428000Y-43933000D01*
X155428000Y-43679000D01*
X155448000Y-43679000D01*
X155448000Y-42754750D01*
X155702000Y-42754750D01*
X155702000Y-43679000D01*
X156751250Y-43679000D01*
X156910000Y-43520250D01*
X156913072Y-43231000D01*
X156900812Y-43106518D01*
X156864502Y-42986820D01*
X156805537Y-42876506D01*
X156726185Y-42779815D01*
X156629494Y-42700463D01*
X156519180Y-42641498D01*
X156399482Y-42605188D01*
X156275000Y-42592928D01*
X155860750Y-42596000D01*
X155702000Y-42754750D01*
X155448000Y-42754750D01*
X155289250Y-42596000D01*
X154875000Y-42592928D01*
X154750518Y-42605188D01*
X154630820Y-42641498D01*
X154520506Y-42700463D01*
X154423815Y-42779815D01*
X154346952Y-42873474D01*
X154332537Y-42846506D01*
X154253185Y-42749815D01*
X154237000Y-42736532D01*
X154237000Y-39377711D01*
X154346937Y-39267774D01*
X154460205Y-39098256D01*
X154538226Y-38909898D01*
X154578000Y-38709939D01*
X154578000Y-38506061D01*
X154538226Y-38306102D01*
X154460205Y-38117744D01*
X154346937Y-37948226D01*
X154202774Y-37804063D01*
X154033256Y-37690795D01*
X153844898Y-37612774D01*
X153644939Y-37573000D01*
X153441061Y-37573000D01*
X153241102Y-37612774D01*
X153052744Y-37690795D01*
X152883226Y-37804063D01*
X152739063Y-37948226D01*
X152625795Y-38117744D01*
X152547774Y-38306102D01*
X152508000Y-38506061D01*
X152508000Y-38709939D01*
X152547774Y-38909898D01*
X152625795Y-39098256D01*
X152717001Y-39234756D01*
X152717000Y-42661750D01*
X152654000Y-42724750D01*
X152654000Y-42806859D01*
X152621463Y-42846506D01*
X152562498Y-42956820D01*
X152527000Y-43073841D01*
X152491502Y-42956820D01*
X152432537Y-42846506D01*
X152400000Y-42806859D01*
X152400000Y-42724750D01*
X152337000Y-42661750D01*
X152337000Y-39869754D01*
X152428205Y-39733256D01*
X152506226Y-39544898D01*
X152546000Y-39344939D01*
X152546000Y-39141061D01*
X152506226Y-38941102D01*
X152428205Y-38752744D01*
X152314937Y-38583226D01*
X152170774Y-38439063D01*
X152001256Y-38325795D01*
X151812898Y-38247774D01*
X151612939Y-38208000D01*
X151409061Y-38208000D01*
X151209102Y-38247774D01*
X151020744Y-38325795D01*
X150851226Y-38439063D01*
X150707063Y-38583226D01*
X150685000Y-38616246D01*
X150685000Y-36754000D01*
X161729928Y-36754000D01*
X161733000Y-37043250D01*
X161891750Y-37202000D01*
X162941000Y-37202000D01*
X162941000Y-36277750D01*
X162782250Y-36119000D01*
X162368000Y-36115928D01*
X162243518Y-36128188D01*
X162123820Y-36164498D01*
X162013506Y-36223463D01*
X161916815Y-36302815D01*
X161837463Y-36399506D01*
X161778498Y-36509820D01*
X161742188Y-36629518D01*
X161729928Y-36754000D01*
X150685000Y-36754000D01*
X150685000Y-30685000D01*
X169315000Y-30685000D01*
X169315000Y-33464481D01*
G37*
X169315000Y-33464481D02*
X169211898Y-33421774D01*
X169011939Y-33382000D01*
X168808061Y-33382000D01*
X168608102Y-33421774D01*
X168419744Y-33499795D01*
X168250226Y-33613063D01*
X168106063Y-33757226D01*
X167992795Y-33926744D01*
X167914774Y-34115102D01*
X167875000Y-34315061D01*
X167875000Y-34518939D01*
X167905431Y-34671928D01*
X167474000Y-34671928D01*
X167349518Y-34684188D01*
X167229820Y-34720498D01*
X167119506Y-34779463D01*
X167022815Y-34858815D01*
X166943463Y-34955506D01*
X166884498Y-35065820D01*
X166848188Y-35185518D01*
X166835928Y-35310000D01*
X166835928Y-35810000D01*
X166848188Y-35934482D01*
X166884498Y-36054180D01*
X166943463Y-36164494D01*
X166964000Y-36189519D01*
X166964000Y-36265928D01*
X166749000Y-36265928D01*
X166749000Y-36062322D01*
X166752676Y-36024999D01*
X166749000Y-35987676D01*
X166749000Y-35987667D01*
X166738003Y-35876014D01*
X166694546Y-35732753D01*
X166623974Y-35600724D01*
X166529001Y-35484999D01*
X166499998Y-35461197D01*
X166412072Y-35373271D01*
X166412072Y-35310000D01*
X166399812Y-35185518D01*
X166363502Y-35065820D01*
X166304537Y-34955506D01*
X166225185Y-34858815D01*
X166128494Y-34779463D01*
X166018180Y-34720498D01*
X165898482Y-34684188D01*
X165774000Y-34671928D01*
X165274000Y-34671928D01*
X165149518Y-34684188D01*
X165029820Y-34720498D01*
X164919506Y-34779463D01*
X164822815Y-34858815D01*
X164743463Y-34955506D01*
X164684498Y-35065820D01*
X164648188Y-35185518D01*
X164635928Y-35310000D01*
X164635928Y-35810000D01*
X164648188Y-35934482D01*
X164684498Y-36054180D01*
X164743463Y-36164494D01*
X164822815Y-36261185D01*
X164911998Y-36334375D01*
X164911998Y-36427748D01*
X164753250Y-36269000D01*
X164639000Y-36265928D01*
X164514518Y-36278188D01*
X164394820Y-36314498D01*
X164284506Y-36373463D01*
X164280119Y-36377063D01*
X164219185Y-36302815D01*
X164122494Y-36223463D01*
X164012180Y-36164498D01*
X163892482Y-36128188D01*
X163768000Y-36115928D01*
X163353750Y-36119000D01*
X163195000Y-36277750D01*
X163195000Y-37202000D01*
X164137750Y-37202000D01*
X164162750Y-37227000D01*
X164912000Y-37227000D01*
X164912000Y-37207000D01*
X165166000Y-37207000D01*
X165166000Y-37227000D01*
X165186000Y-37227000D01*
X165186000Y-37481000D01*
X165166000Y-37481000D01*
X165166000Y-37501000D01*
X164912000Y-37501000D01*
X164912000Y-37481000D01*
X164269250Y-37481000D01*
X164244250Y-37456000D01*
X163195000Y-37456000D01*
X163195000Y-37476000D01*
X162941000Y-37476000D01*
X162941000Y-37456000D01*
X161891750Y-37456000D01*
X161733000Y-37614750D01*
X161729928Y-37904000D01*
X161742188Y-38028482D01*
X161778498Y-38148180D01*
X161837463Y-38258494D01*
X161916815Y-38355185D01*
X161996594Y-38420658D01*
X161990038Y-38426038D01*
X161879595Y-38560613D01*
X161797528Y-38714149D01*
X161746992Y-38880745D01*
X161729928Y-39053999D01*
X161729928Y-39704001D01*
X161746992Y-39877255D01*
X161797528Y-40043851D01*
X161800001Y-40048478D01*
X161800001Y-40792928D01*
X161410000Y-40792928D01*
X161285518Y-40805188D01*
X161165820Y-40841498D01*
X161055506Y-40900463D01*
X160958815Y-40979815D01*
X160879463Y-41076506D01*
X160820498Y-41186820D01*
X160784188Y-41306518D01*
X160771928Y-41431000D01*
X160771928Y-43931000D01*
X160784188Y-44055482D01*
X160820498Y-44175180D01*
X160879463Y-44285494D01*
X160958815Y-44382185D01*
X161055506Y-44461537D01*
X161165820Y-44520502D01*
X161285518Y-44556812D01*
X161410000Y-44569072D01*
X163710000Y-44569072D01*
X163834482Y-44556812D01*
X163954180Y-44520502D01*
X164064494Y-44461537D01*
X164161185Y-44382185D01*
X164240537Y-44285494D01*
X164299502Y-44175180D01*
X164335812Y-44055482D01*
X164348072Y-43931000D01*
X164348072Y-43051000D01*
X164561224Y-43051000D01*
X164564992Y-43089254D01*
X164615528Y-43255850D01*
X164697595Y-43409386D01*
X164808038Y-43543962D01*
X164942614Y-43654405D01*
X165096150Y-43736472D01*
X165262746Y-43787008D01*
X165436000Y-43804072D01*
X165845394Y-43804072D01*
X165799992Y-43953745D01*
X165782928Y-44126999D01*
X165782928Y-45027001D01*
X165799992Y-45200255D01*
X165850528Y-45366851D01*
X165932595Y-45520387D01*
X165992187Y-45593000D01*
X165932595Y-45665613D01*
X165850528Y-45819149D01*
X165799992Y-45985745D01*
X165782928Y-46158999D01*
X165782928Y-47059001D01*
X165799992Y-47232255D01*
X165850528Y-47398851D01*
X165932595Y-47552387D01*
X166043038Y-47686962D01*
X166069963Y-47709059D01*
X166003488Y-47790058D01*
X165922577Y-47941433D01*
X165872752Y-48105684D01*
X165855928Y-48276500D01*
X165855928Y-48751500D01*
X165872752Y-48922316D01*
X165922577Y-49086567D01*
X166003488Y-49237942D01*
X166073585Y-49323355D01*
X166052038Y-49341038D01*
X165941595Y-49475613D01*
X165859528Y-49629149D01*
X165808992Y-49795745D01*
X165791928Y-49968999D01*
X165791928Y-50817333D01*
X165706795Y-50944744D01*
X165628774Y-51133102D01*
X165589000Y-51333061D01*
X165589000Y-51536939D01*
X165628774Y-51736898D01*
X165706795Y-51925256D01*
X165820063Y-52094774D01*
X165964226Y-52238937D01*
X166133744Y-52352205D01*
X166322102Y-52430226D01*
X166522061Y-52470000D01*
X166725939Y-52470000D01*
X166925898Y-52430226D01*
X167114256Y-52352205D01*
X167283774Y-52238937D01*
X167427937Y-52094774D01*
X167541205Y-51925256D01*
X167619226Y-51736898D01*
X167626015Y-51702770D01*
X167669851Y-51689472D01*
X167823387Y-51607405D01*
X167957962Y-51496962D01*
X167963342Y-51490406D01*
X168028815Y-51570185D01*
X168125506Y-51649537D01*
X168235820Y-51708502D01*
X168355518Y-51744812D01*
X168480000Y-51757072D01*
X168769250Y-51754000D01*
X168928000Y-51595250D01*
X168928000Y-50546000D01*
X168908000Y-50546000D01*
X168908000Y-50292000D01*
X168928000Y-50292000D01*
X168928000Y-50272000D01*
X169182000Y-50272000D01*
X169182000Y-50292000D01*
X169202000Y-50292000D01*
X169202000Y-50546000D01*
X169182000Y-50546000D01*
X169182000Y-51595250D01*
X169315001Y-51728251D01*
X169315001Y-53022345D01*
X169260000Y-53016928D01*
X168845750Y-53020000D01*
X168687000Y-53178750D01*
X168687000Y-54103000D01*
X168707000Y-54103000D01*
X168707000Y-54357000D01*
X168687000Y-54357000D01*
X168687000Y-54377000D01*
X168433000Y-54377000D01*
X168433000Y-54357000D01*
X166437000Y-54357000D01*
X166437000Y-54377000D01*
X166183000Y-54377000D01*
X166183000Y-54357000D01*
X166163000Y-54357000D01*
X166163000Y-54103000D01*
X166183000Y-54103000D01*
X166183000Y-53178750D01*
X166437000Y-53178750D01*
X166437000Y-54103000D01*
X168433000Y-54103000D01*
X168433000Y-53178750D01*
X168274250Y-53020000D01*
X167860000Y-53016928D01*
X167735518Y-53029188D01*
X167615820Y-53065498D01*
X167505506Y-53124463D01*
X167435000Y-53182326D01*
X167364494Y-53124463D01*
X167254180Y-53065498D01*
X167134482Y-53029188D01*
X167010000Y-53016928D01*
X166595750Y-53020000D01*
X166437000Y-53178750D01*
X166183000Y-53178750D01*
X166024250Y-53020000D01*
X165610000Y-53016928D01*
X165485518Y-53029188D01*
X165365820Y-53065498D01*
X165255506Y-53124463D01*
X165195727Y-53173522D01*
X165141975Y-53108025D01*
X164961536Y-52959942D01*
X164755674Y-52849906D01*
X164532300Y-52782147D01*
X164300000Y-52759267D01*
X164145174Y-52774516D01*
X164139502Y-52755820D01*
X164080537Y-52645506D01*
X164001185Y-52548815D01*
X163904494Y-52469463D01*
X163794180Y-52410498D01*
X163674482Y-52374188D01*
X163550000Y-52361928D01*
X163535750Y-52365000D01*
X163377000Y-52523750D01*
X163377000Y-53037587D01*
X163372929Y-52996255D01*
X163328084Y-52848418D01*
X163255258Y-52712171D01*
X163193000Y-52636309D01*
X163193000Y-52138711D01*
X163236937Y-52094774D01*
X163350205Y-51925256D01*
X163428226Y-51736898D01*
X163468000Y-51536939D01*
X163468000Y-51333061D01*
X163428226Y-51133102D01*
X163350205Y-50944744D01*
X163236937Y-50775226D01*
X163092774Y-50631063D01*
X162923256Y-50517795D01*
X162734898Y-50439774D01*
X162534939Y-50400000D01*
X162331061Y-50400000D01*
X162251173Y-50415891D01*
X162207205Y-50309744D01*
X162093937Y-50140226D01*
X161949774Y-49996063D01*
X161780256Y-49882795D01*
X161591898Y-49804774D01*
X161391939Y-49765000D01*
X161288000Y-49765000D01*
X161288000Y-49725711D01*
X161331937Y-49681774D01*
X161445205Y-49512256D01*
X161523226Y-49323898D01*
X161563000Y-49123939D01*
X161563000Y-48920061D01*
X161552757Y-48868565D01*
X162274250Y-48866000D01*
X162433000Y-48707250D01*
X162433000Y-47108000D01*
X162687000Y-47108000D01*
X162687000Y-48707250D01*
X162845750Y-48866000D01*
X163710000Y-48869072D01*
X163834482Y-48856812D01*
X163954180Y-48820502D01*
X164064494Y-48761537D01*
X164161185Y-48682185D01*
X164240537Y-48585494D01*
X164299502Y-48475180D01*
X164335812Y-48355482D01*
X164348072Y-48231000D01*
X164345000Y-47266750D01*
X164186250Y-47108000D01*
X162687000Y-47108000D01*
X162433000Y-47108000D01*
X160933750Y-47108000D01*
X160775000Y-47266750D01*
X160773245Y-47817678D01*
X160713215Y-47672754D01*
X160599947Y-47503236D01*
X160455784Y-47359073D01*
X160286266Y-47245805D01*
X160097908Y-47167784D01*
X159897949Y-47128010D01*
X159694071Y-47128010D01*
X159494112Y-47167784D01*
X159305754Y-47245805D01*
X159136236Y-47359073D01*
X158992073Y-47503236D01*
X158878805Y-47672754D01*
X158800784Y-47861112D01*
X158761010Y-48061071D01*
X158761010Y-48264949D01*
X158800784Y-48464908D01*
X158878805Y-48653266D01*
X158992073Y-48822784D01*
X159036011Y-48866722D01*
X159036011Y-49495300D01*
X158901774Y-49361063D01*
X158732256Y-49247795D01*
X158543898Y-49169774D01*
X158343939Y-49130000D01*
X158140061Y-49130000D01*
X157940102Y-49169774D01*
X157751744Y-49247795D01*
X157582226Y-49361063D01*
X157438063Y-49505226D01*
X157324795Y-49674744D01*
X157246774Y-49863102D01*
X157207000Y-50063061D01*
X157207000Y-50266939D01*
X157240379Y-50434746D01*
X157215102Y-50439774D01*
X157026744Y-50517795D01*
X156857226Y-50631063D01*
X156713063Y-50775226D01*
X156599795Y-50944744D01*
X156521774Y-51133102D01*
X156482000Y-51333061D01*
X156482000Y-51536939D01*
X156521774Y-51736898D01*
X156599795Y-51925256D01*
X156713063Y-52094774D01*
X156757000Y-52138711D01*
X156757000Y-52697235D01*
X156744742Y-52712171D01*
X156671916Y-52848418D01*
X156627071Y-52996255D01*
X156623000Y-53037587D01*
X156623000Y-52523750D01*
X156464250Y-52365000D01*
X156450000Y-52361928D01*
X156325518Y-52374188D01*
X156205820Y-52410498D01*
X156095506Y-52469463D01*
X155998815Y-52548815D01*
X155919463Y-52645506D01*
X155860498Y-52755820D01*
X155854827Y-52774516D01*
X155700000Y-52759267D01*
X155467701Y-52782147D01*
X155244327Y-52849906D01*
X155038465Y-52959942D01*
X154858026Y-53108025D01*
X154709943Y-53288464D01*
X154640673Y-53418056D01*
X154620962Y-53394038D01*
X154486387Y-53283595D01*
X154332851Y-53201528D01*
X154303000Y-53192473D01*
X154303000Y-51503711D01*
X154346937Y-51459774D01*
X154460205Y-51290256D01*
X154538226Y-51101898D01*
X154578000Y-50901939D01*
X154578000Y-50698061D01*
X154538226Y-50498102D01*
X154460205Y-50309744D01*
X154346937Y-50140226D01*
X154202774Y-49996063D01*
X154033256Y-49882795D01*
X153844898Y-49804774D01*
X153644939Y-49765000D01*
X153441061Y-49765000D01*
X153241102Y-49804774D01*
X153052744Y-49882795D01*
X152883226Y-49996063D01*
X152739063Y-50140226D01*
X152625795Y-50309744D01*
X152547774Y-50498102D01*
X152508000Y-50698061D01*
X152508000Y-50901939D01*
X152547774Y-51101898D01*
X152625795Y-51290256D01*
X152739063Y-51459774D01*
X152783000Y-51503711D01*
X152783001Y-53192473D01*
X152753149Y-53201528D01*
X152599613Y-53283595D01*
X152465038Y-53394038D01*
X152463500Y-53395912D01*
X152461962Y-53394038D01*
X152327387Y-53283595D01*
X152173851Y-53201528D01*
X152144000Y-53192473D01*
X152144000Y-50868711D01*
X152187937Y-50824774D01*
X152301205Y-50655256D01*
X152379226Y-50466898D01*
X152419000Y-50266939D01*
X152419000Y-50063061D01*
X152379226Y-49863102D01*
X152307286Y-49689425D01*
X152314937Y-49681774D01*
X152428205Y-49512256D01*
X152506226Y-49323898D01*
X152546000Y-49123939D01*
X152546000Y-48920061D01*
X152506226Y-48720102D01*
X152428205Y-48531744D01*
X152314937Y-48362226D01*
X152271000Y-48318289D01*
X152271000Y-48248356D01*
X152425061Y-48279000D01*
X152508000Y-48279000D01*
X152508000Y-48361939D01*
X152547774Y-48561898D01*
X152625795Y-48750256D01*
X152739063Y-48919774D01*
X152883226Y-49063937D01*
X153052744Y-49177205D01*
X153241102Y-49255226D01*
X153441061Y-49295000D01*
X153644939Y-49295000D01*
X153844898Y-49255226D01*
X154033256Y-49177205D01*
X154202774Y-49063937D01*
X154346937Y-48919774D01*
X154460205Y-48750256D01*
X154538226Y-48561898D01*
X154578000Y-48361939D01*
X154578000Y-48158061D01*
X154538226Y-47958102D01*
X154460205Y-47769744D01*
X154346937Y-47600226D01*
X154237000Y-47490289D01*
X154237000Y-46925468D01*
X154253185Y-46912185D01*
X154332537Y-46815494D01*
X154391502Y-46705180D01*
X154396998Y-46687063D01*
X154497038Y-46808962D01*
X154569213Y-46868195D01*
X154540000Y-47015061D01*
X154540000Y-47218939D01*
X154579774Y-47418898D01*
X154657795Y-47607256D01*
X154771063Y-47776774D01*
X154915226Y-47920937D01*
X155084744Y-48034205D01*
X155273102Y-48112226D01*
X155473061Y-48152000D01*
X155676939Y-48152000D01*
X155876898Y-48112226D01*
X156065256Y-48034205D01*
X156234774Y-47920937D01*
X156378937Y-47776774D01*
X156492205Y-47607256D01*
X156570226Y-47418898D01*
X156610000Y-47218939D01*
X156610000Y-47015061D01*
X156580787Y-46868195D01*
X156652962Y-46808962D01*
X156763405Y-46674387D01*
X156794614Y-46616000D01*
X157433678Y-46616000D01*
X157471000Y-46619676D01*
X157508322Y-46616000D01*
X157508333Y-46616000D01*
X157619986Y-46605003D01*
X157763247Y-46561546D01*
X157895276Y-46490974D01*
X158011001Y-46396001D01*
X158034804Y-46366997D01*
X158244998Y-46156803D01*
X158274001Y-46133001D01*
X158368974Y-46017276D01*
X158439546Y-45885247D01*
X158483003Y-45741986D01*
X158484085Y-45731000D01*
X160771928Y-45731000D01*
X160775000Y-46695250D01*
X160933750Y-46854000D01*
X162433000Y-46854000D01*
X162433000Y-45254750D01*
X162687000Y-45254750D01*
X162687000Y-46854000D01*
X164186250Y-46854000D01*
X164345000Y-46695250D01*
X164348072Y-45731000D01*
X164335812Y-45606518D01*
X164299502Y-45486820D01*
X164240537Y-45376506D01*
X164161185Y-45279815D01*
X164064494Y-45200463D01*
X163954180Y-45141498D01*
X163834482Y-45105188D01*
X163710000Y-45092928D01*
X162845750Y-45096000D01*
X162687000Y-45254750D01*
X162433000Y-45254750D01*
X162274250Y-45096000D01*
X161410000Y-45092928D01*
X161285518Y-45105188D01*
X161165820Y-45141498D01*
X161055506Y-45200463D01*
X160958815Y-45279815D01*
X160879463Y-45376506D01*
X160820498Y-45486820D01*
X160784188Y-45606518D01*
X160771928Y-45731000D01*
X158484085Y-45731000D01*
X158494000Y-45630333D01*
X158494000Y-45630324D01*
X158497676Y-45593001D01*
X158494000Y-45555678D01*
X158494000Y-41216711D01*
X158537937Y-41172774D01*
X158651205Y-41003256D01*
X158729226Y-40814898D01*
X158769000Y-40614939D01*
X158769000Y-40411061D01*
X158729226Y-40211102D01*
X158651205Y-40022744D01*
X158537937Y-39853226D01*
X158393774Y-39709063D01*
X158224256Y-39595795D01*
X158035898Y-39517774D01*
X157835939Y-39478000D01*
X157632061Y-39478000D01*
X157432102Y-39517774D01*
X157243744Y-39595795D01*
X157074226Y-39709063D01*
X156930063Y-39853226D01*
X156816795Y-40022744D01*
X156738774Y-40211102D01*
X156699000Y-40411061D01*
X156699000Y-40614939D01*
X156738774Y-40814898D01*
X156816795Y-41003256D01*
X156930063Y-41172774D01*
X156974001Y-41216712D01*
X156974000Y-45096000D01*
X156794614Y-45096000D01*
X156763405Y-45037613D01*
X156652962Y-44903038D01*
X156646406Y-44897658D01*
X156726185Y-44832185D01*
X156805537Y-44735494D01*
X156864502Y-44625180D01*
X156900812Y-44505482D01*
X156913072Y-44381000D01*
X156910000Y-44091750D01*
X156751250Y-43933000D01*
X155702000Y-43933000D01*
X155702000Y-43953000D01*
X155448000Y-43953000D01*
X155448000Y-43933000D01*
X155428000Y-43933000D01*
X155428000Y-43679000D01*
X155448000Y-43679000D01*
X155448000Y-42754750D01*
X155702000Y-42754750D01*
X155702000Y-43679000D01*
X156751250Y-43679000D01*
X156910000Y-43520250D01*
X156913072Y-43231000D01*
X156900812Y-43106518D01*
X156864502Y-42986820D01*
X156805537Y-42876506D01*
X156726185Y-42779815D01*
X156629494Y-42700463D01*
X156519180Y-42641498D01*
X156399482Y-42605188D01*
X156275000Y-42592928D01*
X155860750Y-42596000D01*
X155702000Y-42754750D01*
X155448000Y-42754750D01*
X155289250Y-42596000D01*
X154875000Y-42592928D01*
X154750518Y-42605188D01*
X154630820Y-42641498D01*
X154520506Y-42700463D01*
X154423815Y-42779815D01*
X154346952Y-42873474D01*
X154332537Y-42846506D01*
X154253185Y-42749815D01*
X154237000Y-42736532D01*
X154237000Y-39377711D01*
X154346937Y-39267774D01*
X154460205Y-39098256D01*
X154538226Y-38909898D01*
X154578000Y-38709939D01*
X154578000Y-38506061D01*
X154538226Y-38306102D01*
X154460205Y-38117744D01*
X154346937Y-37948226D01*
X154202774Y-37804063D01*
X154033256Y-37690795D01*
X153844898Y-37612774D01*
X153644939Y-37573000D01*
X153441061Y-37573000D01*
X153241102Y-37612774D01*
X153052744Y-37690795D01*
X152883226Y-37804063D01*
X152739063Y-37948226D01*
X152625795Y-38117744D01*
X152547774Y-38306102D01*
X152508000Y-38506061D01*
X152508000Y-38709939D01*
X152547774Y-38909898D01*
X152625795Y-39098256D01*
X152717001Y-39234756D01*
X152717000Y-42661750D01*
X152654000Y-42724750D01*
X152654000Y-42806859D01*
X152621463Y-42846506D01*
X152562498Y-42956820D01*
X152527000Y-43073841D01*
X152491502Y-42956820D01*
X152432537Y-42846506D01*
X152400000Y-42806859D01*
X152400000Y-42724750D01*
X152337000Y-42661750D01*
X152337000Y-39869754D01*
X152428205Y-39733256D01*
X152506226Y-39544898D01*
X152546000Y-39344939D01*
X152546000Y-39141061D01*
X152506226Y-38941102D01*
X152428205Y-38752744D01*
X152314937Y-38583226D01*
X152170774Y-38439063D01*
X152001256Y-38325795D01*
X151812898Y-38247774D01*
X151612939Y-38208000D01*
X151409061Y-38208000D01*
X151209102Y-38247774D01*
X151020744Y-38325795D01*
X150851226Y-38439063D01*
X150707063Y-38583226D01*
X150685000Y-38616246D01*
X150685000Y-36754000D01*
X161729928Y-36754000D01*
X161733000Y-37043250D01*
X161891750Y-37202000D01*
X162941000Y-37202000D01*
X162941000Y-36277750D01*
X162782250Y-36119000D01*
X162368000Y-36115928D01*
X162243518Y-36128188D01*
X162123820Y-36164498D01*
X162013506Y-36223463D01*
X161916815Y-36302815D01*
X161837463Y-36399506D01*
X161778498Y-36509820D01*
X161742188Y-36629518D01*
X161729928Y-36754000D01*
X150685000Y-36754000D01*
X150685000Y-30685000D01*
X169315000Y-30685000D01*
X169315000Y-33464481D01*
G36*
X169173000Y-44450000D02*
G01*
X169193000Y-44450000D01*
X169193000Y-44704000D01*
X169173000Y-44704000D01*
X169173000Y-46482000D01*
X169193000Y-46482000D01*
X169193000Y-46736000D01*
X169173000Y-46736000D01*
X169173000Y-46756000D01*
X168919000Y-46756000D01*
X168919000Y-46736000D01*
X168899000Y-46736000D01*
X168899000Y-46482000D01*
X168919000Y-46482000D01*
X168919000Y-44704000D01*
X168899000Y-44704000D01*
X168899000Y-44450000D01*
X168919000Y-44450000D01*
X168919000Y-44430000D01*
X169173000Y-44430000D01*
X169173000Y-44450000D01*
G37*
X169173000Y-44450000D02*
X169193000Y-44450000D01*
X169193000Y-44704000D01*
X169173000Y-44704000D01*
X169173000Y-46482000D01*
X169193000Y-46482000D01*
X169193000Y-46736000D01*
X169173000Y-46736000D01*
X169173000Y-46756000D01*
X168919000Y-46756000D01*
X168919000Y-46736000D01*
X168899000Y-46736000D01*
X168899000Y-46482000D01*
X168919000Y-46482000D01*
X168919000Y-44704000D01*
X168899000Y-44704000D01*
X168899000Y-44450000D01*
X168919000Y-44450000D01*
X168919000Y-44430000D01*
X169173000Y-44430000D01*
X169173000Y-44450000D01*
G36*
X167620498Y-38432820D02*
G01*
X167584188Y-38552518D01*
X167571928Y-38677000D01*
X167575000Y-38966250D01*
X167733750Y-39125000D01*
X168783000Y-39125000D01*
X168783000Y-39105000D01*
X169037000Y-39105000D01*
X169037000Y-39125000D01*
X169057000Y-39125000D01*
X169057000Y-39379000D01*
X169037000Y-39379000D01*
X169037000Y-39399000D01*
X168783000Y-39399000D01*
X168783000Y-39379000D01*
X167733750Y-39379000D01*
X167575000Y-39537750D01*
X167571928Y-39827000D01*
X167584188Y-39951482D01*
X167620498Y-40071180D01*
X167679463Y-40181494D01*
X167758815Y-40278185D01*
X167855506Y-40357537D01*
X167882750Y-40372099D01*
X167875000Y-40411061D01*
X167875000Y-40614939D01*
X167914774Y-40814898D01*
X167953508Y-40908409D01*
X167917614Y-40927595D01*
X167783038Y-41038038D01*
X167672595Y-41172614D01*
X167590528Y-41326150D01*
X167539992Y-41492746D01*
X167522928Y-41666000D01*
X167522928Y-42566770D01*
X167249072Y-42840627D01*
X167249072Y-41666000D01*
X167232008Y-41492746D01*
X167181472Y-41326150D01*
X167099405Y-41172614D01*
X166988962Y-41038038D01*
X166854386Y-40927595D01*
X166700850Y-40845528D01*
X166534254Y-40794992D01*
X166361000Y-40777928D01*
X165436000Y-40777928D01*
X165262746Y-40794992D01*
X165096150Y-40845528D01*
X164942614Y-40927595D01*
X164808038Y-41038038D01*
X164697595Y-41172614D01*
X164615528Y-41326150D01*
X164564992Y-41492746D01*
X164561224Y-41531000D01*
X164348072Y-41531000D01*
X164348072Y-41431000D01*
X164335812Y-41306518D01*
X164299502Y-41186820D01*
X164240537Y-41076506D01*
X164161185Y-40979815D01*
X164064494Y-40900463D01*
X163954180Y-40841498D01*
X163834482Y-40805188D01*
X163710000Y-40792928D01*
X163320000Y-40792928D01*
X163320000Y-40592072D01*
X163518001Y-40592072D01*
X163691255Y-40575008D01*
X163857851Y-40524472D01*
X164011387Y-40442405D01*
X164145962Y-40331962D01*
X164256405Y-40197387D01*
X164287614Y-40139000D01*
X164729680Y-40139000D01*
X164767002Y-40142676D01*
X164804324Y-40139000D01*
X165048043Y-40139000D01*
X165058463Y-40158494D01*
X165137815Y-40255185D01*
X165234506Y-40334537D01*
X165344820Y-40393502D01*
X165464518Y-40429812D01*
X165589000Y-40442072D01*
X166389000Y-40442072D01*
X166513482Y-40429812D01*
X166633180Y-40393502D01*
X166743494Y-40334537D01*
X166840185Y-40255185D01*
X166919537Y-40158494D01*
X166978502Y-40048180D01*
X167014812Y-39928482D01*
X167027072Y-39804000D01*
X167027072Y-38904000D01*
X167014812Y-38779518D01*
X166978502Y-38659820D01*
X166919537Y-38549506D01*
X166840185Y-38452815D01*
X166827095Y-38442072D01*
X167339000Y-38442072D01*
X167463482Y-38429812D01*
X167583180Y-38393502D01*
X167664848Y-38349849D01*
X167620498Y-38432820D01*
G37*
X167620498Y-38432820D02*
X167584188Y-38552518D01*
X167571928Y-38677000D01*
X167575000Y-38966250D01*
X167733750Y-39125000D01*
X168783000Y-39125000D01*
X168783000Y-39105000D01*
X169037000Y-39105000D01*
X169037000Y-39125000D01*
X169057000Y-39125000D01*
X169057000Y-39379000D01*
X169037000Y-39379000D01*
X169037000Y-39399000D01*
X168783000Y-39399000D01*
X168783000Y-39379000D01*
X167733750Y-39379000D01*
X167575000Y-39537750D01*
X167571928Y-39827000D01*
X167584188Y-39951482D01*
X167620498Y-40071180D01*
X167679463Y-40181494D01*
X167758815Y-40278185D01*
X167855506Y-40357537D01*
X167882750Y-40372099D01*
X167875000Y-40411061D01*
X167875000Y-40614939D01*
X167914774Y-40814898D01*
X167953508Y-40908409D01*
X167917614Y-40927595D01*
X167783038Y-41038038D01*
X167672595Y-41172614D01*
X167590528Y-41326150D01*
X167539992Y-41492746D01*
X167522928Y-41666000D01*
X167522928Y-42566770D01*
X167249072Y-42840627D01*
X167249072Y-41666000D01*
X167232008Y-41492746D01*
X167181472Y-41326150D01*
X167099405Y-41172614D01*
X166988962Y-41038038D01*
X166854386Y-40927595D01*
X166700850Y-40845528D01*
X166534254Y-40794992D01*
X166361000Y-40777928D01*
X165436000Y-40777928D01*
X165262746Y-40794992D01*
X165096150Y-40845528D01*
X164942614Y-40927595D01*
X164808038Y-41038038D01*
X164697595Y-41172614D01*
X164615528Y-41326150D01*
X164564992Y-41492746D01*
X164561224Y-41531000D01*
X164348072Y-41531000D01*
X164348072Y-41431000D01*
X164335812Y-41306518D01*
X164299502Y-41186820D01*
X164240537Y-41076506D01*
X164161185Y-40979815D01*
X164064494Y-40900463D01*
X163954180Y-40841498D01*
X163834482Y-40805188D01*
X163710000Y-40792928D01*
X163320000Y-40792928D01*
X163320000Y-40592072D01*
X163518001Y-40592072D01*
X163691255Y-40575008D01*
X163857851Y-40524472D01*
X164011387Y-40442405D01*
X164145962Y-40331962D01*
X164256405Y-40197387D01*
X164287614Y-40139000D01*
X164729680Y-40139000D01*
X164767002Y-40142676D01*
X164804324Y-40139000D01*
X165048043Y-40139000D01*
X165058463Y-40158494D01*
X165137815Y-40255185D01*
X165234506Y-40334537D01*
X165344820Y-40393502D01*
X165464518Y-40429812D01*
X165589000Y-40442072D01*
X166389000Y-40442072D01*
X166513482Y-40429812D01*
X166633180Y-40393502D01*
X166743494Y-40334537D01*
X166840185Y-40255185D01*
X166919537Y-40158494D01*
X166978502Y-40048180D01*
X167014812Y-39928482D01*
X167027072Y-39804000D01*
X167027072Y-38904000D01*
X167014812Y-38779518D01*
X166978502Y-38659820D01*
X166919537Y-38549506D01*
X166840185Y-38452815D01*
X166827095Y-38442072D01*
X167339000Y-38442072D01*
X167463482Y-38429812D01*
X167583180Y-38393502D01*
X167664848Y-38349849D01*
X167620498Y-38432820D01*
%TD*%
M02*
