M48
; DRILL file {KiCad (5.1.6)-1} date 03/12/21 01:35:41
; FORMAT={-:-/ absolute / inch / decimal}
; #@! TF.CreationDate,2021-03-12T01:35:41-08:00
; #@! TF.GenerationSoftware,Kicad,Pcbnew,(5.1.6)-1
; #@! TF.FileFunction,Plated,1,2,PTH
FMAT,2
INCH
T1C0.0157
T2C0.0236
%
G90
G05
T1
X5.96Y-1.975
X5.965Y-1.545
X5.965Y-1.93
X6.0046Y-2.055
X6.005Y-1.47
X6.005Y-1.86
X6.045Y-1.52
X6.045Y-1.9
X6.045Y-2.0
X6.125Y-1.855
X6.1303Y-2.2285
X6.17Y-2.055
X6.175Y-1.725
X6.19Y-1.47
X6.2015Y-2.025
X6.21Y-1.595
X6.23Y-1.975
X6.2912Y-1.8962
X6.32Y-1.93
X6.33Y-1.725
X6.35Y-2.0
X6.385Y-1.39
X6.395Y-2.025
X6.425Y-2.055
X6.4685Y-2.2281
X6.56Y-2.025
X6.585Y-1.525
X6.59Y-2.055
X6.65Y-1.355
X6.65Y-1.595
T2
G00X6.1299Y-2.1673
M15
G01X6.1299Y-2.124
M16
G05
G00X6.1299Y-2.3228
M15
G01X6.1299Y-2.2992
M16
G05
G00X6.4685Y-2.1673
M15
G01X6.4685Y-2.124
M16
G05
G00X6.4685Y-2.3228
M15
G01X6.4685Y-2.2992
M16
G05
T0
M30
