%TF.GenerationSoftware,KiCad,Pcbnew,(5.1.6)-1*%
%TF.CreationDate,2021-03-12T01:35:39-08:00*%
%TF.ProjectId,WML-C43,574d4c2d-4334-4332-9e6b-696361645f70,rev?*%
%TF.SameCoordinates,Original*%
%TF.FileFunction,Legend,Top*%
%TF.FilePolarity,Positive*%
%FSLAX46Y46*%
G04 Gerber Fmt 4.6, Leading zero omitted, Abs format (unit mm)*
G04 Created by KiCad (PCBNEW (5.1.6)-1) date 2021-03-12 01:35:39*
%MOMM*%
%LPD*%
G01*
G04 APERTURE LIST*
%ADD10C,0.150000*%
%ADD11C,0.120000*%
%ADD12C,0.125000*%
G04 APERTURE END LIST*
D10*
X166140380Y-58941642D02*
X167140380Y-58703547D01*
X166426095Y-58513071D01*
X167140380Y-58322595D01*
X166140380Y-58084500D01*
X167140380Y-57703547D02*
X166140380Y-57703547D01*
X166854666Y-57370214D01*
X166140380Y-57036880D01*
X167140380Y-57036880D01*
X167140380Y-56084500D02*
X167140380Y-56560690D01*
X166140380Y-56560690D01*
X166759428Y-55751166D02*
X166759428Y-54989261D01*
X167045142Y-53941642D02*
X167092761Y-53989261D01*
X167140380Y-54132119D01*
X167140380Y-54227357D01*
X167092761Y-54370214D01*
X166997523Y-54465452D01*
X166902285Y-54513071D01*
X166711809Y-54560690D01*
X166568952Y-54560690D01*
X166378476Y-54513071D01*
X166283238Y-54465452D01*
X166188000Y-54370214D01*
X166140380Y-54227357D01*
X166140380Y-54132119D01*
X166188000Y-53989261D01*
X166235619Y-53941642D01*
X166473714Y-53084500D02*
X167140380Y-53084500D01*
X166092761Y-53322595D02*
X166807047Y-53560690D01*
X166807047Y-52941642D01*
X166140380Y-52655928D02*
X166140380Y-52036880D01*
X166521333Y-52370214D01*
X166521333Y-52227357D01*
X166568952Y-52132119D01*
X166616571Y-52084500D01*
X166711809Y-52036880D01*
X166949904Y-52036880D01*
X167045142Y-52084500D01*
X167092761Y-52132119D01*
X167140380Y-52227357D01*
X167140380Y-52513071D01*
X167092761Y-52608309D01*
X167045142Y-52655928D01*
X166473714Y-50989261D02*
X166473714Y-50608309D01*
X166140380Y-50846404D02*
X166997523Y-50846404D01*
X167092761Y-50798785D01*
X167140380Y-50703547D01*
X167140380Y-50608309D01*
X167140380Y-50132119D02*
X167092761Y-50227357D01*
X167045142Y-50274976D01*
X166949904Y-50322595D01*
X166664190Y-50322595D01*
X166568952Y-50274976D01*
X166521333Y-50227357D01*
X166473714Y-50132119D01*
X166473714Y-49989261D01*
X166521333Y-49894023D01*
X166568952Y-49846404D01*
X166664190Y-49798785D01*
X166949904Y-49798785D01*
X167045142Y-49846404D01*
X167092761Y-49894023D01*
X167140380Y-49989261D01*
X167140380Y-50132119D01*
X166140380Y-48608309D02*
X166949904Y-48608309D01*
X167045142Y-48560690D01*
X167092761Y-48513071D01*
X167140380Y-48417833D01*
X167140380Y-48227357D01*
X167092761Y-48132119D01*
X167045142Y-48084500D01*
X166949904Y-48036880D01*
X166140380Y-48036880D01*
X167092761Y-47608309D02*
X167140380Y-47465452D01*
X167140380Y-47227357D01*
X167092761Y-47132119D01*
X167045142Y-47084500D01*
X166949904Y-47036880D01*
X166854666Y-47036880D01*
X166759428Y-47084500D01*
X166711809Y-47132119D01*
X166664190Y-47227357D01*
X166616571Y-47417833D01*
X166568952Y-47513071D01*
X166521333Y-47560690D01*
X166426095Y-47608309D01*
X166330857Y-47608309D01*
X166235619Y-47560690D01*
X166188000Y-47513071D01*
X166140380Y-47417833D01*
X166140380Y-47179738D01*
X166188000Y-47036880D01*
X166616571Y-46274976D02*
X166664190Y-46132119D01*
X166711809Y-46084500D01*
X166807047Y-46036880D01*
X166949904Y-46036880D01*
X167045142Y-46084500D01*
X167092761Y-46132119D01*
X167140380Y-46227357D01*
X167140380Y-46608309D01*
X166140380Y-46608309D01*
X166140380Y-46274976D01*
X166188000Y-46179738D01*
X166235619Y-46132119D01*
X166330857Y-46084500D01*
X166426095Y-46084500D01*
X166521333Y-46132119D01*
X166568952Y-46179738D01*
X166616571Y-46274976D01*
X166616571Y-46608309D01*
X166759428Y-45608309D02*
X166759428Y-44846404D01*
X167045142Y-43798785D02*
X167092761Y-43846404D01*
X167140380Y-43989261D01*
X167140380Y-44084500D01*
X167092761Y-44227357D01*
X166997523Y-44322595D01*
X166902285Y-44370214D01*
X166711809Y-44417833D01*
X166568952Y-44417833D01*
X166378476Y-44370214D01*
X166283238Y-44322595D01*
X166188000Y-44227357D01*
X166140380Y-44084500D01*
X166140380Y-43989261D01*
X166188000Y-43846404D01*
X166235619Y-43798785D01*
X166473714Y-42703547D02*
X167140380Y-42465452D01*
X166473714Y-42227357D01*
X166140380Y-41655928D02*
X166140380Y-41560690D01*
X166188000Y-41465452D01*
X166235619Y-41417833D01*
X166330857Y-41370214D01*
X166521333Y-41322595D01*
X166759428Y-41322595D01*
X166949904Y-41370214D01*
X167045142Y-41417833D01*
X167092761Y-41465452D01*
X167140380Y-41560690D01*
X167140380Y-41655928D01*
X167092761Y-41751166D01*
X167045142Y-41798785D01*
X166949904Y-41846404D01*
X166759428Y-41894023D01*
X166521333Y-41894023D01*
X166330857Y-41846404D01*
X166235619Y-41798785D01*
X166188000Y-41751166D01*
X166140380Y-41655928D01*
X167045142Y-40894023D02*
X167092761Y-40846404D01*
X167140380Y-40894023D01*
X167092761Y-40941642D01*
X167045142Y-40894023D01*
X167140380Y-40894023D01*
X166473714Y-39989261D02*
X167140380Y-39989261D01*
X166092761Y-40227357D02*
X166807047Y-40465452D01*
X166807047Y-39846404D01*
X168790380Y-58846404D02*
X167790380Y-58846404D01*
X168790380Y-58274976D01*
X167790380Y-58274976D01*
X168790380Y-57370214D02*
X168266571Y-57370214D01*
X168171333Y-57417833D01*
X168123714Y-57513071D01*
X168123714Y-57703547D01*
X168171333Y-57798785D01*
X168742761Y-57370214D02*
X168790380Y-57465452D01*
X168790380Y-57703547D01*
X168742761Y-57798785D01*
X168647523Y-57846404D01*
X168552285Y-57846404D01*
X168457047Y-57798785D01*
X168409428Y-57703547D01*
X168409428Y-57465452D01*
X168361809Y-57370214D01*
X168790380Y-56894023D02*
X168123714Y-56894023D01*
X167790380Y-56894023D02*
X167838000Y-56941642D01*
X167885619Y-56894023D01*
X167838000Y-56846404D01*
X167790380Y-56894023D01*
X167885619Y-56894023D01*
X168790380Y-56274976D02*
X168742761Y-56370214D01*
X168647523Y-56417833D01*
X167790380Y-56417833D01*
X168790380Y-55894023D02*
X168123714Y-55894023D01*
X167790380Y-55894023D02*
X167838000Y-55941642D01*
X167885619Y-55894023D01*
X167838000Y-55846404D01*
X167790380Y-55894023D01*
X167885619Y-55894023D01*
X168790380Y-55417833D02*
X168123714Y-55417833D01*
X168218952Y-55417833D02*
X168171333Y-55370214D01*
X168123714Y-55274976D01*
X168123714Y-55132119D01*
X168171333Y-55036880D01*
X168266571Y-54989261D01*
X168790380Y-54989261D01*
X168266571Y-54989261D02*
X168171333Y-54941642D01*
X168123714Y-54846404D01*
X168123714Y-54703547D01*
X168171333Y-54608309D01*
X168266571Y-54560690D01*
X168790380Y-54560690D01*
X168790380Y-53655928D02*
X168266571Y-53655928D01*
X168171333Y-53703547D01*
X168123714Y-53798785D01*
X168123714Y-53989261D01*
X168171333Y-54084500D01*
X168742761Y-53655928D02*
X168790380Y-53751166D01*
X168790380Y-53989261D01*
X168742761Y-54084500D01*
X168647523Y-54132119D01*
X168552285Y-54132119D01*
X168457047Y-54084500D01*
X168409428Y-53989261D01*
X168409428Y-53751166D01*
X168361809Y-53655928D01*
X167885619Y-52465452D02*
X167838000Y-52417833D01*
X167790380Y-52322595D01*
X167790380Y-52084500D01*
X167838000Y-51989261D01*
X167885619Y-51941642D01*
X167980857Y-51894023D01*
X168076095Y-51894023D01*
X168218952Y-51941642D01*
X168790380Y-52513071D01*
X168790380Y-51894023D01*
X167790380Y-51274976D02*
X167790380Y-51179738D01*
X167838000Y-51084500D01*
X167885619Y-51036880D01*
X167980857Y-50989261D01*
X168171333Y-50941642D01*
X168409428Y-50941642D01*
X168599904Y-50989261D01*
X168695142Y-51036880D01*
X168742761Y-51084500D01*
X168790380Y-51179738D01*
X168790380Y-51274976D01*
X168742761Y-51370214D01*
X168695142Y-51417833D01*
X168599904Y-51465452D01*
X168409428Y-51513071D01*
X168171333Y-51513071D01*
X167980857Y-51465452D01*
X167885619Y-51417833D01*
X167838000Y-51370214D01*
X167790380Y-51274976D01*
X167885619Y-50560690D02*
X167838000Y-50513071D01*
X167790380Y-50417833D01*
X167790380Y-50179738D01*
X167838000Y-50084500D01*
X167885619Y-50036880D01*
X167980857Y-49989261D01*
X168076095Y-49989261D01*
X168218952Y-50036880D01*
X168790380Y-50608309D01*
X168790380Y-49989261D01*
X168790380Y-49036880D02*
X168790380Y-49608309D01*
X168790380Y-49322595D02*
X167790380Y-49322595D01*
X167933238Y-49417833D01*
X168028476Y-49513071D01*
X168076095Y-49608309D01*
D11*
%TO.C,U3*%
X156700000Y-32455000D02*
X163300000Y-32455000D01*
X163300000Y-36555000D02*
X163300000Y-32455000D01*
X163300000Y-36555000D02*
X156700000Y-36555000D01*
X156700000Y-32455000D02*
X156700000Y-36555000D01*
D10*
X159238095Y-33957380D02*
X159238095Y-34766904D01*
X159285714Y-34862142D01*
X159333333Y-34909761D01*
X159428571Y-34957380D01*
X159619047Y-34957380D01*
X159714285Y-34909761D01*
X159761904Y-34862142D01*
X159809523Y-34766904D01*
X159809523Y-33957380D01*
X160190476Y-33957380D02*
X160809523Y-33957380D01*
X160476190Y-34338333D01*
X160619047Y-34338333D01*
X160714285Y-34385952D01*
X160761904Y-34433571D01*
X160809523Y-34528809D01*
X160809523Y-34766904D01*
X160761904Y-34862142D01*
X160714285Y-34909761D01*
X160619047Y-34957380D01*
X160333333Y-34957380D01*
X160238095Y-34909761D01*
X160190476Y-34862142D01*
D12*
X157364761Y-36001190D02*
X157079047Y-36001190D01*
X157221904Y-36001190D02*
X157221904Y-35501190D01*
X157174285Y-35572619D01*
X157126666Y-35620238D01*
X157079047Y-35644047D01*
X157793333Y-35501190D02*
X157698095Y-35501190D01*
X157650476Y-35525000D01*
X157626666Y-35548809D01*
X157579047Y-35620238D01*
X157555238Y-35715476D01*
X157555238Y-35905952D01*
X157579047Y-35953571D01*
X157602857Y-35977380D01*
X157650476Y-36001190D01*
X157745714Y-36001190D01*
X157793333Y-35977380D01*
X157817142Y-35953571D01*
X157840952Y-35905952D01*
X157840952Y-35786904D01*
X157817142Y-35739285D01*
X157793333Y-35715476D01*
X157745714Y-35691666D01*
X157650476Y-35691666D01*
X157602857Y-35715476D01*
X157579047Y-35739285D01*
X157555238Y-35786904D01*
X162444761Y-36001190D02*
X162540000Y-36001190D01*
X162587619Y-35977380D01*
X162611428Y-35953571D01*
X162659047Y-35882142D01*
X162682857Y-35786904D01*
X162682857Y-35596428D01*
X162659047Y-35548809D01*
X162635238Y-35525000D01*
X162587619Y-35501190D01*
X162492380Y-35501190D01*
X162444761Y-35525000D01*
X162420952Y-35548809D01*
X162397142Y-35596428D01*
X162397142Y-35715476D01*
X162420952Y-35763095D01*
X162444761Y-35786904D01*
X162492380Y-35810714D01*
X162587619Y-35810714D01*
X162635238Y-35786904D01*
X162659047Y-35763095D01*
X162682857Y-35715476D01*
X162682857Y-33461190D02*
X162397142Y-33461190D01*
X162540000Y-33461190D02*
X162540000Y-32961190D01*
X162492380Y-33032619D01*
X162444761Y-33080238D01*
X162397142Y-33104047D01*
X157412380Y-33175476D02*
X157364761Y-33151666D01*
X157340952Y-33127857D01*
X157317142Y-33080238D01*
X157317142Y-33056428D01*
X157340952Y-33008809D01*
X157364761Y-32985000D01*
X157412380Y-32961190D01*
X157507619Y-32961190D01*
X157555238Y-32985000D01*
X157579047Y-33008809D01*
X157602857Y-33056428D01*
X157602857Y-33080238D01*
X157579047Y-33127857D01*
X157555238Y-33151666D01*
X157507619Y-33175476D01*
X157412380Y-33175476D01*
X157364761Y-33199285D01*
X157340952Y-33223095D01*
X157317142Y-33270714D01*
X157317142Y-33365952D01*
X157340952Y-33413571D01*
X157364761Y-33437380D01*
X157412380Y-33461190D01*
X157507619Y-33461190D01*
X157555238Y-33437380D01*
X157579047Y-33413571D01*
X157602857Y-33365952D01*
X157602857Y-33270714D01*
X157579047Y-33223095D01*
X157555238Y-33199285D01*
X157507619Y-33175476D01*
%TD*%
M02*
